<?xml version="1.0" standalone="no"?>
<!DOCTYPE svg PUBLIC "-//W3C//DTD SVG 20010904//EN"
 "http://www.w3.org/TR/2001/REC-SVG-20010904/DTD/svg10.dtd">
<svg version="1.0" xmlns="http://www.w3.org/2000/svg"
 width="900.000000pt" height="900.000000pt" viewBox="0 0 900.000000 900.000000"
 preserveAspectRatio="xMidYMid meet">
<metadata>
Created by potrace 1.11, written by Peter Selinger 2001-2013
</metadata>
<g transform="translate(0.000000,900.000000) scale(0.100000,-0.100000)"
fill="#000000" stroke="none">
<path d="M170 8915 l0 -85 -85 0 -85 0 0 -85 0 -85 85 0 85 0 0 -85 0 -85 -85
0 -85 0 0 -85 0 -85 85 0 85 0 0 -85 0 -85 -85 0 -85 0 0 -85 0 -85 85 0 85 0
0 -85 0 -85 -85 0 -85 0 0 -85 0 -85 85 0 85 0 0 -85 0 -85 -85 0 -85 0 0 -85
0 -85 85 0 85 0 0 -85 0 -85 -85 0 -85 0 0 -85 0 -85 85 0 85 0 0 -85 0 -85
-85 0 -85 0 0 -85 0 -85 85 0 85 0 0 -85 0 -85 -85 0 -85 0 0 -85 0 -85 85 0
85 0 0 -85 0 -85 -85 0 -85 0 0 -85 0 -85 85 0 85 0 0 -85 0 -85 -85 0 -85 0
0 -85 0 -85 85 0 85 0 0 -85 0 -85 -85 0 -85 0 0 -85 0 -85 85 0 85 0 0 -85 0
-85 -85 0 -85 0 0 -85 0 -85 85 0 85 0 0 -85 0 -85 -85 0 -85 0 0 -85 0 -85
85 0 85 0 0 -85 0 -85 -85 0 -85 0 0 -85 0 -85 85 0 85 0 0 -85 0 -85 -85 0
-85 0 0 -85 0 -85 85 0 85 0 0 -85 0 -85 -85 0 -85 0 0 -85 0 -85 85 0 85 0 0
-85 0 -85 -85 0 -85 0 0 -85 0 -85 85 0 85 0 0 -85 0 -85 -85 0 -85 0 0 -85 0
-85 85 0 85 0 0 -85 0 -85 -85 0 -85 0 0 -85 0 -85 85 0 85 0 0 -85 0 -85 -85
0 -85 0 0 -85 0 -85 85 0 85 0 0 -85 0 -85 -85 0 -85 0 0 -85 0 -85 85 0 85 0
0 -85 0 -85 -85 0 -85 0 0 -85 0 -85 85 0 85 0 0 -85 0 -85 -85 0 -85 0 0 -85
0 -85 85 0 85 0 0 -85 0 -85 -85 0 -85 0 0 -85 0 -85 85 0 85 0 0 -85 0 -85
-85 0 -85 0 0 -85 0 -85 85 0 85 0 0 -85 0 -85 -85 0 -85 0 0 -85 0 -85 85 0
85 0 0 -80 0 -80 85 0 85 0 0 80 0 80 85 0 85 0 0 -80 0 -80 85 0 85 0 0 80 0
80 85 0 85 0 0 -80 0 -80 85 0 85 0 0 80 0 80 85 0 85 0 0 -80 0 -80 85 0 85
0 0 80 0 80 85 0 85 0 0 -80 0 -80 85 0 85 0 0 80 0 80 85 0 85 0 0 -80 0 -80
85 0 85 0 0 80 0 80 85 0 85 0 0 -80 0 -80 85 0 85 0 0 80 0 80 85 0 85 0 0
-80 0 -80 85 0 85 0 0 80 0 80 85 0 85 0 0 -80 0 -80 85 0 85 0 0 80 0 80 85
0 85 0 0 -80 0 -80 85 0 85 0 0 80 0 80 85 0 85 0 0 -80 0 -80 85 0 85 0 0 80
0 80 85 0 85 0 0 -80 0 -80 85 0 85 0 0 80 0 80 85 0 85 0 0 -80 0 -80 85 0
85 0 0 80 0 80 85 0 85 0 0 -80 0 -80 85 0 85 0 0 80 0 80 85 0 85 0 0 -80 0
-80 85 0 85 0 0 80 0 80 85 0 85 0 0 -80 0 -80 85 0 85 0 0 80 0 80 85 0 85 0
0 -80 0 -80 85 0 85 0 0 80 0 80 85 0 85 0 0 -80 0 -80 85 0 85 0 0 80 0 80
85 0 85 0 0 -80 0 -80 85 0 85 0 0 80 0 80 85 0 85 0 0 -80 0 -80 85 0 85 0 0
80 0 80 85 0 85 0 0 -80 0 -80 85 0 85 0 0 80 0 80 85 0 85 0 0 -80 0 -80 85
0 85 0 0 80 0 80 85 0 85 0 0 -80 0 -80 85 0 85 0 0 80 0 80 85 0 85 0 0 -80
0 -80 85 0 85 0 0 80 0 80 85 0 85 0 0 -80 0 -80 85 0 85 0 0 80 0 80 85 0 85
0 0 -80 0 -80 85 0 85 0 0 80 0 80 80 0 80 0 0 85 0 85 -80 0 -80 0 0 85 0 85
80 0 80 0 0 85 0 85 -80 0 -80 0 0 85 0 85 80 0 80 0 0 85 0 85 -80 0 -80 0 0
85 0 85 80 0 80 0 0 85 0 85 -80 0 -80 0 0 85 0 85 80 0 80 0 0 85 0 85 -80 0
-80 0 0 85 0 85 80 0 80 0 0 85 0 85 -80 0 -80 0 0 85 0 85 80 0 80 0 0 85 0
85 -80 0 -80 0 0 85 0 85 80 0 80 0 0 85 0 85 -80 0 -80 0 0 85 0 85 80 0 80
0 0 85 0 85 -80 0 -80 0 0 85 0 85 80 0 80 0 0 85 0 85 -80 0 -80 0 0 85 0 85
80 0 80 0 0 85 0 85 -80 0 -80 0 0 85 0 85 80 0 80 0 0 85 0 85 -80 0 -80 0 0
85 0 85 80 0 80 0 0 85 0 85 -80 0 -80 0 0 85 0 85 80 0 80 0 0 85 0 85 -80 0
-80 0 0 85 0 85 80 0 80 0 0 85 0 85 -80 0 -80 0 0 85 0 85 80 0 80 0 0 85 0
85 -80 0 -80 0 0 85 0 85 80 0 80 0 0 85 0 85 -80 0 -80 0 0 85 0 85 80 0 80
0 0 85 0 85 -80 0 -80 0 0 85 0 85 80 0 80 0 0 85 0 85 -80 0 -80 0 0 85 0 85
80 0 80 0 0 85 0 85 -80 0 -80 0 0 85 0 85 80 0 80 0 0 85 0 85 -80 0 -80 0 0
85 0 85 80 0 80 0 0 85 0 85 -80 0 -80 0 0 85 0 85 80 0 80 0 0 85 0 85 -80 0
-80 0 0 85 0 85 80 0 80 0 0 85 0 85 -80 0 -80 0 0 85 0 85 80 0 80 0 0 85 0
85 -80 0 -80 0 0 85 0 85 80 0 80 0 0 85 0 85 -80 0 -80 0 0 85 0 85 -85 0
-85 0 0 -85 0 -85 -85 0 -85 0 0 85 0 85 -85 0 -85 0 0 -85 0 -85 -85 0 -85 0
0 85 0 85 -85 0 -85 0 0 -85 0 -85 -85 0 -85 0 0 85 0 85 -85 0 -85 0 0 -85 0
-85 -85 0 -85 0 0 85 0 85 -85 0 -85 0 0 -85 0 -85 -85 0 -85 0 0 85 0 85 -85
0 -85 0 0 -85 0 -85 -85 0 -85 0 0 85 0 85 -85 0 -85 0 0 -85 0 -85 -85 0 -85
0 0 85 0 85 -85 0 -85 0 0 -85 0 -85 -85 0 -85 0 0 85 0 85 -85 0 -85 0 0 -85
0 -85 -85 0 -85 0 0 85 0 85 -85 0 -85 0 0 -85 0 -85 -85 0 -85 0 0 85 0 85
-85 0 -85 0 0 -85 0 -85 -85 0 -85 0 0 85 0 85 -85 0 -85 0 0 -85 0 -85 -85 0
-85 0 0 85 0 85 -85 0 -85 0 0 -85 0 -85 -85 0 -85 0 0 85 0 85 -85 0 -85 0 0
-85 0 -85 -85 0 -85 0 0 85 0 85 -85 0 -85 0 0 -85 0 -85 -85 0 -85 0 0 85 0
85 -85 0 -85 0 0 -85 0 -85 -85 0 -85 0 0 85 0 85 -85 0 -85 0 0 -85 0 -85
-85 0 -85 0 0 85 0 85 -85 0 -85 0 0 -85 0 -85 -85 0 -85 0 0 85 0 85 -85 0
-85 0 0 -85 0 -85 -85 0 -85 0 0 85 0 85 -85 0 -85 0 0 -85 0 -85 -85 0 -85 0
0 85 0 85 -85 0 -85 0 0 -85 0 -85 -85 0 -85 0 0 85 0 85 -85 0 -85 0 0 -85 0
-85 -85 0 -85 0 0 85 0 85 -85 0 -85 0 0 -85 0 -85 -85 0 -85 0 0 85 0 85 -85
0 -85 0 0 -85 0 -85 -85 0 -85 0 0 85 0 85 -85 0 -85 0 0 -85 0 -85 -85 0 -85
0 0 85 0 85 -85 0 -85 0 0 -85z m170 -170 l0 -85 85 0 85 0 0 85 0 85 85 0 85
0 0 -85 0 -85 85 0 85 0 0 85 0 85 85 0 85 0 0 -85 0 -85 85 0 85 0 0 85 0 85
85 0 85 0 0 -85 0 -85 85 0 85 0 0 85 0 85 85 0 85 0 0 -85 0 -85 85 0 85 0 0
85 0 85 85 0 85 0 0 -85 0 -85 85 0 85 0 0 85 0 85 85 0 85 0 0 -85 0 -85 85
0 85 0 0 85 0 85 85 0 85 0 0 -85 0 -85 85 0 85 0 0 85 0 85 85 0 85 0 0 -85
0 -85 85 0 85 0 0 85 0 85 85 0 85 0 0 -85 0 -85 85 0 85 0 0 85 0 85 85 0 85
0 0 -85 0 -85 85 0 85 0 0 85 0 85 85 0 85 0 0 -85 0 -85 85 0 85 0 0 85 0 85
85 0 85 0 0 -85 0 -85 85 0 85 0 0 85 0 85 85 0 85 0 0 -85 0 -85 85 0 85 0 0
85 0 85 85 0 85 0 0 -85 0 -85 85 0 85 0 0 85 0 85 85 0 85 0 0 -85 0 -85 85
0 85 0 0 85 0 85 85 0 85 0 0 -85 0 -85 85 0 85 0 0 85 0 85 85 0 85 0 0 -85
0 -85 85 0 85 0 0 85 0 85 85 0 85 0 0 -85 0 -85 85 0 85 0 0 85 0 85 85 0 85
0 0 -85 0 -85 85 0 85 0 0 85 0 85 85 0 85 0 0 -85 0 -85 85 0 85 0 0 85 0 85
85 0 85 0 0 -85 0 -85 -85 0 -85 0 0 -85 0 -85 -85 0 -85 0 0 -85 0 -85 31 0
30 0 -28 -24 -28 -25 -3 25 c-3 23 -7 24 -69 24 -91 0 -103 12 -103 102 l0 68
-85 0 -85 0 0 85 0 85 -85 0 -85 0 0 -34 0 -35 -32 13 c-18 8 -57 19 -85 26
-29 6 -53 16 -53 21 0 5 -38 9 -85 9 -64 0 -85 -3 -85 -13 0 -7 -26 -21 -58
-31 -31 -10 -69 -25 -84 -32 l-28 -15 0 46 0 45 -85 0 -85 0 0 -85 0 -85 31 0
30 0 -28 -26 -28 -26 -3 26 c-3 26 -4 26 -88 26 l-84 0 0 -85 0 -85 35 0 c19
0 35 -2 35 -4 0 -2 -16 -28 -35 -57 l-35 -54 0 58 0 57 -85 0 -85 0 0 -85 0
-85 66 0 c36 0 64 -4 62 -9 -1 -5 -21 -43 -43 -85 -32 -60 -45 -76 -62 -76
-21 0 -23 -5 -23 -47 0 -25 -8 -64 -17 -85 l-17 -38 -68 0 -68 0 0 -85 0 -85
30 0 c34 0 35 -2 16 -38 -7 -15 -21 -43 -29 -62 l-16 -35 0 68 -1 67 -85 0
-85 0 0 -85 0 -84 80 -3 79 -3 -14 -30 c-7 -16 -24 -54 -36 -82 -21 -53 -22
-53 -66 -53 l-45 0 4 -95 c1 -52 2 -91 0 -85 -2 6 -40 10 -88 10 l-84 0 0 -84
0 -85 50 -3 c49 -3 50 -4 35 -23 -8 -11 -30 -42 -48 -70 l-32 -50 -3 73 -3 72
-84 0 -85 0 0 -85 0 -84 75 -3 75 -3 -75 -79 -75 -79 0 82 0 81 -85 0 -85 0 0
-85 0 -85 78 0 77 -1 -50 -45 c-27 -25 -62 -55 -77 -66 l-28 -19 0 65 0 66
-85 0 -85 0 0 -85 0 -85 61 0 c68 0 68 -3 -14 -58 l-47 -33 0 46 0 45 -85 0
-85 0 0 -85 0 -85 28 0 27 0 -25 -20 c-25 -19 -25 -19 -28 0 -3 18 -12 20 -88
20 l-84 0 0 -71 c0 -89 -9 -98 -102 -99 l-68 0 0 -41 c0 -32 -4 -42 -20 -46
-11 -3 -20 -9 -20 -14 0 -5 -4 -9 -9 -9 -6 0 -36 -15 -68 -34 -66 -38 -213
-116 -219 -116 -2 0 -4 20 -4 45 l0 45 -85 0 -85 0 0 -85 0 -85 85 0 85 0 0
36 0 37 30 -34 29 -34 -29 -3 -30 -3 0 -85 0 -84 85 0 85 0 0 75 c0 72 1 76
26 85 14 6 52 10 85 10 56 0 59 1 59 25 0 21 9 29 53 49 64 29 106 46 112 46
3 0 5 -27 5 -60 l0 -60 85 0 85 0 0 85 0 85 -37 0 -38 1 34 14 c41 18 41 18
41 0 0 -12 16 -15 85 -15 l85 0 0 60 0 59 43 26 c28 16 59 25 85 25 38 0 42 2
42 25 0 15 7 28 18 32 16 6 110 64 140 86 9 7 12 1 12 -22 0 -25 -10 -42 -46
-76 -38 -38 -52 -45 -85 -45 -38 0 -39 -1 -39 -35 0 -30 -8 -44 -52 -85 -41
-38 -61 -49 -85 -50 -30 0 -33 -3 -33 -30 0 -20 -9 -39 -24 -53 -82 -76 -98
-87 -121 -87 -21 0 -25 -5 -25 -29 0 -16 -4 -31 -9 -33 -5 -1 -34 -27 -64 -55
-31 -29 -65 -53 -76 -53 -14 0 -21 -6 -21 -19 0 -11 -21 -39 -47 -63 -25 -24
-56 -53 -69 -65 -13 -13 -30 -23 -39 -23 -8 0 -15 -6 -15 -13 0 -7 -22 -35
-50 -62 l-50 -49 22 -23 21 -23 -56 0 -57 0 0 -84 0 -85 37 -3 37 -3 -34 -32
-35 -33 -3 35 -3 35 -85 0 -84 0 0 -84 0 -85 36 -3 35 -3 -35 -38 -36 -37 0
40 0 40 -85 0 -85 0 0 -85 0 -85 39 0 39 0 -35 -35 c-19 -19 -37 -35 -39 -35
-2 0 -4 16 -4 35 l0 35 -85 0 -85 0 0 -84 0 -85 36 -3 37 -3 -31 -32 c-16 -18
-33 -33 -36 -33 -3 0 -6 16 -6 35 l0 35 -85 0 -85 0 0 -85 0 -85 35 0 c19 0
35 -2 35 -5 0 -7 -59 -65 -65 -65 -3 0 -5 16 -5 35 l0 35 -85 0 -85 0 0 -85 0
-85 35 0 c19 0 35 -3 35 -6 0 -3 -16 -21 -35 -40 l-35 -34 0 40 0 40 -85 0
-85 0 0 -85 0 -85 35 0 c19 0 35 -2 35 -5 0 -3 -15 -20 -32 -38 l-33 -31 -3
37 -3 37 -85 0 -84 0 0 -85 0 -85 35 0 c19 0 35 -3 35 -6 0 -4 -16 -21 -35
-40 l-35 -33 0 40 0 39 -85 0 -85 0 0 -84 0 -85 36 -3 37 -3 -31 -33 c-16 -17
-33 -32 -36 -32 -3 0 -6 16 -6 35 l0 35 -85 0 -85 0 0 -85 0 -85 35 0 c19 0
35 -2 35 -5 0 -3 -16 -21 -35 -41 l-35 -35 0 41 0 40 -85 0 -85 0 0 -84 0 -85
39 -3 38 -3 -38 -38 -39 -38 0 41 0 40 -85 0 -85 0 0 -85 0 -85 40 0 40 0 -38
-38 -37 -37 -3 37 -3 38 -85 0 -84 0 0 -84 0 -85 39 -3 38 -3 -38 -38 -39 -38
0 41 0 40 -85 0 -85 0 0 -85 0 -85 39 0 40 0 -37 -40 -37 -39 -3 39 -3 40 -85
0 -84 0 0 -85 0 -85 40 0 41 0 -38 -39 -38 -38 -3 38 -3 39 -85 0 -84 0 0 -84
0 -85 40 -3 39 -3 -39 -38 -40 -38 0 40 0 41 -85 0 -85 0 0 -85 0 -85 50 0
c28 0 50 -2 50 -4 0 -1 -42 -77 -93 -167 l-93 -164 -42 -3 -42 -3 0 -69 c0
-101 1 -100 -91 -100 l-79 0 0 -85 0 -85 29 0 30 0 -27 -50 -27 -51 -3 51 -3
50 -85 0 -84 0 0 -85 0 -85 64 0 c59 0 64 -2 59 -20 -3 -11 -9 -20 -14 -20 -5
0 -9 -4 -9 -9 0 -24 -66 -121 -82 -121 -14 0 -18 -8 -18 -32 0 -18 -14 -57
-30 -85 l-30 -53 -56 0 -56 0 4 -95 c1 -52 2 -91 0 -85 -2 6 -40 10 -88 10
l-84 0 0 -85 0 -84 83 -3 82 -3 3 -60 c5 -104 4 -105 -88 -105 l-80 0 0 -84
c0 -46 4 -86 10 -88 6 -2 6 -8 0 -18 -8 -13 -10 -12 -10 3 0 15 -11 17 -85 17
l-85 0 0 85 0 85 85 0 85 0 0 85 0 85 -85 0 -85 0 0 85 0 85 85 0 85 0 0 85 0
85 -85 0 -85 0 0 85 0 85 85 0 85 0 0 85 0 85 -85 0 -85 0 0 85 0 85 85 0 85
0 0 85 0 85 -85 0 -85 0 0 85 0 85 85 0 85 0 0 85 0 85 -85 0 -85 0 0 85 0 85
85 0 85 0 0 85 0 85 -85 0 -85 0 0 85 0 85 85 0 85 0 0 85 0 85 -85 0 -85 0 0
85 0 85 85 0 85 0 0 85 0 85 -85 0 -85 0 0 85 0 85 85 0 85 0 0 85 0 85 -85 0
-85 0 0 85 0 85 85 0 85 0 0 85 0 85 -85 0 -85 0 0 85 0 85 85 0 85 0 0 85 0
85 -85 0 -85 0 0 85 0 85 85 0 85 0 0 85 0 85 -85 0 -85 0 0 85 0 85 85 0 85
0 0 85 0 85 -85 0 -85 0 0 85 0 85 85 0 85 0 0 85 0 85 -85 0 -85 0 0 85 0 85
85 0 85 0 0 85 0 85 -85 0 -85 0 0 85 0 85 85 0 85 0 0 85 0 85 -85 0 -85 0 0
85 0 85 85 0 85 0 0 85 0 85 -85 0 -85 0 0 85 0 85 85 0 85 0 0 85 0 85 -85 0
-85 0 0 85 0 85 85 0 85 0 0 85 0 85 -85 0 -85 0 0 85 0 85 85 0 85 0 0 85 0
85 -85 0 -85 0 0 85 0 85 85 0 85 0 0 85 0 85 -85 0 -85 0 0 85 0 85 85 0 85
0 0 85 0 85 -85 0 -85 0 0 85 0 85 85 0 85 0 0 85 0 85 -85 0 -85 0 0 85 0 85
85 0 85 0 0 85 0 85 -85 0 -85 0 0 85 0 85 85 0 85 0 0 -85z m7480 10 c0 -89
-6 -95 -104 -95 l-66 0 0 -40 c0 -61 -22 -62 -78 -6 l-47 46 63 0 62 0 0 85 0
85 85 0 85 0 0 -75z m340 17 l0 -58 -77 2 c-43 2 -81 3 -85 3 -5 1 -8 26 -8
56 l0 55 85 0 85 0 0 -58z m340 -27 l0 -85 85 0 85 0 0 85 0 85 85 0 85 0 0
-85 0 -85 -85 0 -85 0 0 -85 0 -85 85 0 85 0 0 -84 0 -85 -87 -3 -88 -3 3 88
3 87 -57 0 c-49 0 -62 4 -86 27 -24 23 -28 34 -28 85 l0 58 -85 0 -85 0 0 85
0 85 85 0 85 0 0 -85z m-932 -423 l87 3 -3 -88 -3 -88 88 3 88 3 -3 -88 -3
-88 88 3 88 3 -3 -88 -3 -88 88 3 88 3 -3 -88 -3 -88 88 3 88 3 -3 -87 -3 -87
55 -3 55 -3 -39 -42 c-36 -40 -39 -41 -54 -24 -9 10 -16 30 -16 44 0 23 -4 27
-27 27 -39 0 -143 103 -143 142 0 24 -4 28 -28 28 -39 0 -142 104 -142 143 0
23 -4 27 -27 27 -39 0 -143 103 -143 142 0 24 -4 28 -28 28 -39 0 -142 104
-142 143 0 23 -4 27 -27 27 -39 0 -143 103 -143 142 0 24 -4 28 -28 28 -16 0
-37 9 -47 20 -18 20 -18 21 26 66 l44 45 3 -66 3 -66 87 3z m-1018 -75 c60
-27 80 -45 80 -74 0 -20 5 -23 34 -23 47 0 136 -89 136 -137 0 -21 5 -33 17
-35 15 -3 15 -4 0 -17 -15 -12 -17 -11 -17 3 0 13 -13 16 -85 16 l-85 0 0 -85
c0 -53 4 -85 11 -85 5 0 7 -5 3 -12 -6 -9 -9 -9 -12 0 -2 8 -31 12 -89 12
l-84 0 3 -87 3 -88 -87 3 -88 3 0 -85 0 -86 -85 0 -84 0 -3 -82 -3 -83 -82 -3
-83 -3 0 -69 c0 -101 1 -100 -91 -100 l-79 0 0 -67 c0 -91 -12 -103 -102 -103
l-68 0 0 -63 c0 -79 -25 -110 -83 -105 l-36 3 47 82 c26 45 53 83 60 83 6 0
12 10 12 22 0 12 14 50 31 85 l31 63 54 0 54 0 0 84 c0 58 -4 86 -12 88 -10 4
-10 10 -1 29 l12 24 0 -27 1 -28 85 0 85 0 0 85 0 84 -59 3 -59 3 35 83 c31
69 40 82 60 82 21 0 23 4 23 51 0 28 7 66 16 85 16 34 17 34 85 34 l69 0 0 84
c0 82 -1 85 -24 88 l-25 3 25 40 24 40 0 -42 0 -43 85 0 85 0 0 85 0 85 -57 0
-58 1 55 51 55 52 3 -52 3 -52 85 0 84 0 0 66 c0 74 -3 73 90 31z m2290 -182
l0 -86 -62 3 -61 3 -1 83 -1 82 62 0 63 0 0 -85z m0 -340 l0 -85 -85 0 -85 0
0 -62 0 -62 -50 49 c-27 27 -50 55 -50 62 0 9 16 13 50 13 l50 0 0 85 0 85 85
0 85 0 0 -85z m-84 -255 l84 0 0 -85 0 -85 -85 0 -85 0 0 -85 0 -85 85 0 85 0
0 -85 0 -85 -85 0 -85 0 0 -85 0 -85 85 0 85 0 0 -85 0 -85 -85 0 -85 0 0 -85
0 -85 85 0 85 0 0 -85 0 -85 -85 0 -85 0 0 -85 0 -85 85 0 85 0 0 -85 0 -85
-85 0 -85 0 0 -85 0 -85 85 0 85 0 0 -85 0 -85 -85 0 -85 0 0 -85 0 -85 85 0
85 0 0 -85 0 -85 -85 0 -85 0 0 -85 0 -85 85 0 85 0 0 -85 0 -85 -85 0 -85 0
0 -85 0 -85 85 0 85 0 0 -85 0 -85 -85 0 -85 0 0 -85 0 -85 85 0 85 0 0 -85 0
-85 -85 0 -85 0 0 -85 0 -85 85 0 85 0 0 -85 0 -85 -85 0 -85 0 0 -85 0 -85
85 0 85 0 0 -85 0 -85 -85 0 -85 0 0 -85 0 -85 85 0 85 0 0 -85 0 -85 -85 0
-85 0 0 -85 0 -85 85 0 85 0 0 -85 0 -85 -85 0 -85 0 0 -85 0 -85 85 0 85 0 0
-85 0 -85 -85 0 -85 0 0 -85 0 -85 85 0 85 0 0 -85 0 -85 -85 0 -85 0 0 -85 0
-85 85 0 85 0 0 -85 0 -85 -85 0 -85 0 0 -85 0 -85 85 0 85 0 0 -85 0 -85 -85
0 -85 0 0 -85 0 -85 85 0 85 0 0 -85 0 -85 -85 0 -85 0 0 -85 0 -85 85 0 85 0
0 -85 0 -85 -85 0 -85 0 0 -85 0 -85 85 0 85 0 0 -85 0 -85 -85 0 -85 0 0 -85
0 -85 85 0 85 0 0 -85 0 -85 -85 0 -85 0 0 85 0 85 -85 0 -85 0 0 -85 0 -85
-85 0 -85 0 0 85 0 85 -85 0 -85 0 0 -85 0 -85 -85 0 -85 0 0 85 0 85 -85 0
-85 0 0 -85 0 -85 -85 0 -85 0 0 85 0 85 -85 0 -85 0 0 -85 0 -85 -85 0 -85 0
0 85 0 85 -85 0 -85 0 0 -85 0 -85 -85 0 -85 0 0 85 0 85 -85 0 -85 0 0 -85 0
-85 -85 0 -85 0 0 85 0 85 -85 0 -85 0 0 -85 0 -85 -85 0 -85 0 0 85 0 85 -85
0 -85 0 0 -85 0 -85 -85 0 -85 0 0 85 0 85 -85 0 -85 0 0 -85 0 -85 -85 0 -85
0 0 85 0 85 -85 0 -85 0 0 -85 0 -85 -85 0 -85 0 0 85 0 85 -85 0 -85 0 0 -85
0 -85 -85 0 -85 0 0 85 0 85 -85 0 -85 0 0 -85 0 -85 -85 0 -85 0 0 85 0 85
-85 0 -85 0 0 -85 0 -85 -85 0 -85 0 0 85 0 85 -85 0 -85 0 0 -85 0 -85 -85 0
-85 0 0 85 0 85 -85 0 -85 0 0 -85 0 -85 -85 0 -85 0 0 85 0 85 -85 0 -85 0 0
-85 0 -85 -85 0 -85 0 0 85 0 85 -85 0 -85 0 0 -85 0 -85 -85 0 -85 0 0 85 0
85 -85 0 -85 0 0 -85 0 -85 -85 0 -85 0 0 85 0 85 -85 0 -85 0 0 -85 0 -85
-85 0 -85 0 0 85 0 85 -85 0 -85 0 0 -85 0 -85 -85 0 -85 0 0 85 0 85 -85 0
-85 0 0 -85 0 -85 -85 0 -85 0 0 85 0 85 -85 0 -85 0 0 -85 0 -85 -85 0 -85 0
0 85 0 85 -85 0 -85 0 0 -85 0 -85 -85 0 -85 0 0 85 0 85 -85 0 -85 0 0 -85 0
-85 -85 0 -85 0 0 85 0 85 -27 0 -28 0 25 20 c25 19 25 19 28 0 3 -18 12 -20
88 -20 l84 0 0 85 0 86 83 -3 82 -3 3 -82 3 -83 84 0 85 0 0 85 0 85 -27 0
-28 0 25 13 c20 11 26 11 28 0 3 -9 27 -13 88 -13 l84 0 0 63 0 63 41 22 c24
13 59 22 85 22 42 0 44 1 44 30 0 17 4 30 9 30 5 0 40 18 77 40 38 22 72 40
76 40 5 0 8 -31 8 -70 l0 -70 85 0 85 0 0 85 0 84 -62 3 -63 3 30 16 c17 9 44
24 60 33 l30 16 3 -35 3 -35 85 0 84 0 0 85 0 85 85 0 85 0 0 48 0 48 65 37
c35 20 72 37 81 37 9 0 22 7 28 16 6 8 45 35 86 59 l75 43 3 -59 3 -59 84 0
85 0 0 85 0 85 -51 0 -50 0 48 49 48 49 3 -49 3 -49 85 0 84 0 0 85 0 85 -51
0 -50 0 48 50 48 50 3 -50 3 -50 85 0 84 0 0 84 0 85 -51 3 -50 3 50 48 51 49
0 -51 0 -51 85 0 85 0 0 85 0 85 -51 0 -51 0 49 51 48 50 3 -50 3 -51 85 0 84
0 0 84 0 85 -50 3 -51 3 51 49 50 49 0 -52 0 -51 85 0 85 0 0 85 0 85 -45 0
c-25 0 -45 4 -45 8 0 4 20 28 45 52 l45 44 0 -52 0 -52 85 0 85 0 0 85 0 85
-52 0 -52 0 49 50 50 51 3 -51 3 -50 85 0 84 0 0 85 0 85 -52 0 -52 0 49 50
50 51 3 -51 3 -50 85 0 84 0 0 85 0 85 -52 0 -52 0 49 50 50 51 3 -51 3 -50
85 0 84 0 0 85 0 85 -52 0 -52 0 49 50 50 51 3 -51 3 -50 85 0 84 0 0 85 0 85
-52 0 -52 0 49 50 50 51 3 -51 3 -50 85 0 84 0 0 85 0 85 -52 0 -52 0 49 50
50 51 3 -51 3 -50 85 0 84 0 0 85 0 85 -52 0 -52 0 49 50 50 51 3 -51 3 -50
85 0 84 0 0 85 0 85 -52 0 -52 0 49 50 50 51 3 -51 3 -50 85 0 84 0 0 84 0 85
-50 3 -51 3 51 50 50 49 0 -52 0 -52 85 0 85 0 0 85 0 85 -52 0 -52 0 49 50
50 51 3 -51 3 -50 85 0 84 0 0 57 c0 54 1 56 19 39 18 -16 21 -15 62 28 27 29
51 46 66 46 18 0 23 5 23 25 0 38 104 145 141 145 26 0 29 4 29 30 0 22 12 44
43 78 54 60 56 62 95 62 30 0 32 2 32 38 1 30 9 46 45 84 38 42 49 48 84 48
l41 0 0 43 c0 35 7 49 39 85 34 38 42 42 84 42 l47 0 0 49 c0 43 5 55 34 85
30 32 39 36 85 36 l51 0 0 55 c0 46 5 60 27 85 23 27 32 30 85 30 l58 0 0 62
c0 87 21 108 107 108 l63 0 0 67 c0 91 12 103 102 103 l68 0 0 73 c0 43 5 78
12 85 7 7 41 12 85 12 l72 0 3 83 3 82 83 3 82 3 0 84 0 85 86 0 85 0 -3 88
-3 87 88 -3 87 -3 0 85 c0 54 -4 86 -11 86 -5 0 -7 5 -3 12 6 9 9 9 12 0 2 -8
31 -12 88 -12 l84 0 0 85 c0 72 -3 85 -16 85 -14 0 -15 2 -3 17 13 15 14 15
17 0 3 -14 17 -17 88 -17 l84 0 0 84 c0 76 -2 85 -19 88 -19 3 -19 3 0 27 l19
23 0 -26 c0 -26 0 -26 85 -26 l85 0 0 84 c0 83 -1 85 -25 88 l-25 3 25 29 25
29 0 -31 0 -32 85 0 85 0 0 84 0 85 -31 3 -31 3 24 28 c30 35 38 34 38 -3 l0
-30 85 0 85 0 0 85 0 85 -35 0 c-19 0 -35 2 -35 5 0 3 16 22 35 42 l35 37 0
-42 0 -42 85 0 85 0 0 85 c0 53 -4 85 -11 85 -5 0 -7 5 -3 12 6 9 9 9 12 0 2
-8 31 -12 88 -12 l84 0 0 85 c0 53 -4 85 -11 85 -5 0 -7 5 -3 12 6 9 9 9 12 0
2 -8 31 -12 88 -12z m-3346 -823 c-17 -16 -34 -26 -38 -23 -3 4 -2 10 4 14 5
4 21 23 34 42 21 29 25 32 28 16 3 -12 -8 -31 -28 -49z m-310 -283 c0 -3 -18
-23 -41 -45 -26 -25 -50 -39 -66 -39 -31 0 -32 -2 38 49 52 39 69 47 69 35z
m-654 -932 c-26 -3 -26 -4 -26 -88 l0 -84 85 0 85 0 0 27 0 26 26 -24 26 -24
-26 -3 c-26 -3 -26 -4 -26 -88 l0 -84 85 0 85 0 0 27 0 26 26 -24 26 -24 -26
-3 c-26 -3 -26 -4 -26 -88 l0 -84 85 0 85 0 0 27 0 26 26 -24 26 -24 -26 -3
c-26 -3 -26 -4 -26 -88 l0 -84 84 0 c84 0 85 0 88 26 l3 26 24 -26 24 -26 -26
0 -27 0 0 -85 0 -85 85 0 85 0 0 27 0 26 26 -24 26 -24 -26 -3 c-26 -3 -26 -4
-26 -88 l0 -84 85 0 85 0 0 27 0 26 26 -24 26 -24 -26 -3 c-24 -3 -26 -7 -26
-53 0 -43 -4 -54 -35 -84 -30 -31 -41 -35 -85 -35 -28 0 -50 -5 -50 -11 0 -5
-5 -7 -12 -3 -9 6 -9 9 0 12 8 2 12 31 12 88 l0 84 -85 0 c-53 0 -85 -4 -85
-11 0 -5 -5 -7 -12 -3 -9 6 -9 9 0 12 8 2 12 31 12 88 l0 84 -85 0 c-53 0 -85
-4 -85 -11 0 -5 -5 -7 -12 -3 -9 6 -9 9 0 12 8 2 12 31 12 88 l0 84 -85 0
c-53 0 -85 -4 -85 -11 0 -5 -5 -7 -12 -3 -9 6 -9 9 0 12 8 2 12 31 12 88 l0
84 -85 0 c-53 0 -85 -4 -85 -11 0 -5 -5 -7 -12 -3 -9 6 -9 9 0 12 8 2 12 31
12 88 l0 84 -85 0 c-53 0 -85 -4 -85 -11 0 -5 -5 -7 -12 -3 -9 6 -9 9 0 12 8
2 12 31 12 88 l0 84 -85 0 c-53 0 -85 -4 -85 -11 0 -5 -5 -7 -12 -3 -9 6 -9 9
0 12 8 2 12 26 12 62 0 50 4 63 25 85 22 21 35 25 85 25 58 0 60 1 60 27 l0
26 26 -24 26 -24 -26 -3z m759 -1352 c3 -5 -3 -10 -15 -10 -12 0 -18 5 -15 10
3 6 10 10 15 10 5 0 12 -4 15 -10z m-3770 -2048 l-75 -3 0 -84 0 -85 85 0 85
0 0 77 0 77 75 -74 76 -75 -76 -3 -75 -3 0 -84 0 -85 85 0 85 0 0 77 0 77 75
-74 76 -75 -76 -3 -75 -3 0 -84 0 -85 85 0 85 0 0 77 0 77 75 -74 76 -75 -76
-3 -75 -3 0 -84 0 -85 85 0 85 0 0 77 0 77 75 -74 76 -75 -76 -3 -75 -3 0 -38
c0 -21 -6 -43 -12 -48 -14 -11 -85 -52 -153 -87 -22 -12 -42 -24 -45 -27 -6
-7 -119 -69 -126 -69 -2 0 -4 23 -4 50 l0 50 -85 0 -85 0 0 -85 0 -85 28 0 27
-1 -25 -14 c-22 -12 -25 -12 -28 1 -3 11 -23 14 -88 14 l-84 0 0 -65 0 -65
-40 -20 c-22 -11 -59 -20 -85 -20 -42 0 -45 -2 -45 -27 0 -25 -10 -34 -83 -74
l-82 -46 -3 73 -3 74 -84 0 -85 0 0 -77 0 -77 -75 75 -75 74 75 3 75 3 0 84 0
85 -80 0 c-44 0 -80 2 -80 5 0 5 25 51 67 123 22 36 29 42 59 42 l34 0 0 60
c0 32 5 71 12 85 11 23 16 25 85 25 l73 0 0 84 c0 82 -1 85 -24 88 l-24 3 24
35 24 34 0 -37 0 -37 85 0 85 0 0 85 0 85 -60 0 -60 0 27 48 c15 26 36 64 47
85 11 20 26 37 33 37 7 0 13 10 13 23 0 13 13 44 30 70 16 26 27 47 24 47 -4
0 -1 7 6 15 8 10 30 15 61 15 l49 0 0 77 0 77 75 -74 76 -75 -76 -3z m-755
-1109 l0 -68 -27 27 c-23 24 -25 29 -12 44 8 9 12 18 10 18 -4 1 22 46 26 46
2 0 3 -30 3 -67z m266 -274 l-39 -21 -21 21 -20 21 59 0 60 -1 -39 -20z m-659
-333 c4 -7 18 -18 31 -25 19 -10 22 -20 22 -71 l0 -60 -85 0 -85 0 0 85 0 85
55 0 c35 0 57 -5 62 -14z"/>
<path d="M510 8575 l0 -85 -85 0 -85 0 0 -85 0 -85 85 0 85 0 0 -85 0 -85 -85
0 -85 0 0 -85 0 -85 85 0 85 0 0 -85 0 -85 -85 0 -85 0 0 -85 0 -85 85 0 85 0
0 -85 0 -85 -85 0 -85 0 0 -85 0 -85 85 0 85 0 0 -85 0 -85 -85 0 -85 0 0 -85
0 -85 85 0 85 0 0 -85 0 -85 -85 0 -85 0 0 -85 0 -85 85 0 85 0 0 -85 0 -85
-85 0 -85 0 0 -85 0 -85 85 0 85 0 0 -85 0 -85 -85 0 -85 0 0 -85 0 -85 85 0
85 0 0 -85 0 -85 -85 0 -85 0 0 -85 0 -85 85 0 85 0 0 -85 0 -85 -85 0 -85 0
0 -85 0 -85 85 0 85 0 0 -85 0 -85 -85 0 -85 0 0 -85 0 -85 85 0 85 0 0 -85 0
-85 -85 0 -85 0 0 -85 0 -85 85 0 85 0 0 -85 0 -85 -85 0 -85 0 0 -85 0 -85
85 0 85 0 0 -85 0 -85 -85 0 -85 0 0 -85 0 -85 85 0 85 0 0 -85 0 -85 -85 0
-85 0 0 -85 0 -85 85 0 85 0 0 -85 0 -85 -85 0 -85 0 0 -85 0 -85 85 0 85 0 0
-85 0 -85 -85 0 -85 0 0 -85 0 -85 85 0 85 0 0 -85 0 -85 -85 0 -85 0 0 -85 0
-85 85 0 85 0 0 -85 0 -85 -85 0 -85 0 0 -85 0 -85 85 0 85 0 0 -85 0 -85 -85
0 -85 0 0 -85 0 -85 85 0 85 0 0 -85 0 -85 -85 0 -85 0 0 -85 0 -85 85 0 85 0
0 -85 0 -85 -85 0 -85 0 0 -85 0 -85 85 0 85 0 0 85 0 85 85 0 85 0 0 85 0 85
-85 0 -85 0 0 85 0 85 85 0 85 0 0 85 0 85 85 0 85 0 0 85 0 85 85 0 85 0 0
85 0 85 85 0 85 0 0 85 0 85 -85 0 -85 0 0 85 0 85 85 0 85 0 0 85 0 85 85 0
85 0 0 85 0 85 85 0 85 0 0 85 0 85 85 0 85 0 0 85 0 85 85 0 85 0 0 85 0 85
85 0 85 0 0 85 0 85 85 0 85 0 0 85 0 85 85 0 85 0 0 85 0 85 85 0 85 0 0 85
0 85 85 0 85 0 0 85 0 85 85 0 85 0 0 85 0 85 85 0 85 0 0 85 0 85 85 0 85 0
0 85 0 85 85 0 85 0 0 85 0 85 85 0 85 0 0 85 0 85 85 0 85 0 0 85 0 85 85 0
85 0 0 85 0 85 85 0 85 0 0 85 0 85 85 0 85 0 0 85 0 85 -85 0 -85 0 0 -85 0
-85 -85 0 -85 0 0 -85 0 -85 -85 0 -85 0 0 85 0 85 -85 0 -85 0 0 85 0 85 -85
0 -85 0 0 85 0 85 85 0 85 0 0 85 0 85 85 0 85 0 0 -85 0 -85 85 0 85 0 0 85
0 85 85 0 85 0 0 85 0 85 85 0 85 0 0 85 0 85 85 0 85 0 0 85 0 85 85 0 85 0
0 85 0 85 85 0 85 0 0 85 0 85 85 0 85 0 0 85 0 85 85 0 85 0 0 85 0 85 85 0
85 0 0 85 0 85 -85 0 -85 0 0 85 0 85 85 0 85 0 0 85 0 85 85 0 85 0 0 85 0
85 85 0 85 0 0 85 0 85 -85 0 -85 0 0 85 0 85 85 0 85 0 0 85 0 85 85 0 85 0
0 85 0 85 -85 0 -85 0 0 -85 0 -85 -85 0 -85 0 0 85 0 85 -85 0 -85 0 0 -85 0
-85 -85 0 -85 0 0 85 0 85 -85 0 -85 0 0 -85 0 -85 -85 0 -85 0 0 85 0 85 -85
0 -85 0 0 -85 0 -85 -85 0 -85 0 0 85 0 85 -85 0 -85 0 0 -85 0 -85 -85 0 -85
0 0 85 0 85 -85 0 -85 0 0 -85 0 -85 -85 0 -85 0 0 85 0 85 -85 0 -85 0 0 -85
0 -85 -85 0 -85 0 0 85 0 85 -85 0 -85 0 0 -85 0 -85 -85 0 -85 0 0 85 0 85
-85 0 -85 0 0 -85 0 -85 -85 0 -85 0 0 85 0 85 -85 0 -85 0 0 -85 0 -85 -85 0
-85 0 0 85 0 85 -85 0 -85 0 0 -85 0 -85 -85 0 -85 0 0 85 0 85 -85 0 -85 0 0
-85 0 -85 -85 0 -85 0 0 85 0 85 -85 0 -85 0 0 -85 0 -85 -85 0 -85 0 0 85 0
85 -85 0 -85 0 0 -85 0 -85 -85 0 -85 0 0 85 0 85 -85 0 -85 0 0 -85 0 -85
-85 0 -85 0 0 85 0 85 -85 0 -85 0 0 -85z m170 -170 l0 -85 85 0 85 0 0 85 0
85 85 0 85 0 0 -85 0 -85 85 0 85 0 0 85 0 85 85 0 85 0 0 -85 0 -85 85 0 85
0 0 85 0 85 85 0 85 0 0 -85 0 -85 85 0 85 0 0 85 0 85 85 0 85 0 0 -85 0 -85
85 0 85 0 0 85 0 85 85 0 85 0 0 -85 0 -85 85 0 85 0 0 85 0 85 85 0 85 0 0
-85 0 -85 85 0 85 0 0 85 0 85 85 0 85 0 0 -85 0 -85 85 0 85 0 0 85 0 85 85
0 85 0 0 -85 0 -85 85 0 85 0 0 85 0 85 85 0 85 0 0 -85 0 -85 85 0 85 0 0 85
0 85 85 0 85 0 0 -85 0 -85 85 0 85 0 0 85 0 85 85 0 85 0 0 -85 0 -85 85 0
85 0 0 85 0 85 85 0 85 0 0 -85 0 -85 85 0 85 0 0 85 0 85 85 0 85 0 0 -85 0
-85 85 0 85 0 0 85 0 85 85 0 85 0 0 -85 0 -85 -85 0 -85 0 0 -85 0 -85 85 0
85 0 0 -85 0 -85 -85 0 -85 0 0 -85 0 -85 -85 0 -85 0 0 -85 0 -85 -85 0 -85
0 0 -85 0 -85 85 0 85 0 0 -85 0 -85 -85 0 -85 0 0 -85 0 -85 -85 0 -85 0 0
-85 0 -85 -85 0 -85 0 0 -85 0 -85 -85 0 -85 0 0 -85 0 -85 -85 0 -85 0 0 -85
0 -85 -85 0 -85 0 0 -85 0 -85 -85 0 -85 0 0 -85 0 -85 -85 0 -85 0 0 85 0 85
-85 0 -85 0 0 -85 0 -85 -85 0 -85 0 0 -85 0 -85 -85 0 -85 0 0 -85 0 -85 85
0 85 0 0 -85 0 -85 85 0 85 0 0 -85 0 -85 85 0 85 0 0 -85 0 -85 -85 0 -85 0
0 -85 0 -85 -85 0 -85 0 0 -85 0 -85 -85 0 -85 0 0 -85 0 -85 -85 0 -85 0 0
-85 0 -85 -85 0 -85 0 0 -85 0 -85 -85 0 -85 0 0 -85 0 -85 -85 0 -85 0 0 -85
0 -85 -85 0 -85 0 0 -85 0 -85 -85 0 -85 0 0 -85 0 -85 -85 0 -85 0 0 -85 0
-85 -85 0 -85 0 0 -85 0 -85 -85 0 -85 0 0 -85 0 -85 -85 0 -85 0 0 -85 0 -85
-85 0 -85 0 0 -85 0 -85 -85 0 -85 0 0 -85 0 -85 -85 0 -85 0 0 -85 0 -85 -85
0 -85 0 0 -85 0 -85 85 0 85 0 0 -85 0 -85 -85 0 -85 0 0 -85 0 -85 -85 0 -85
0 0 -85 0 -85 -85 0 -85 0 0 85 0 85 85 0 85 0 0 85 0 85 -85 0 -85 0 0 85 0
85 85 0 85 0 0 85 0 85 -85 0 -85 0 0 85 0 85 85 0 85 0 0 85 0 85 -85 0 -85
0 0 85 0 85 85 0 85 0 0 85 0 85 -85 0 -85 0 0 85 0 85 85 0 85 0 0 85 0 85
-85 0 -85 0 0 85 0 85 85 0 85 0 0 85 0 85 -85 0 -85 0 0 85 0 85 85 0 85 0 0
85 0 85 -85 0 -85 0 0 85 0 85 85 0 85 0 0 85 0 85 -85 0 -85 0 0 85 0 85 85
0 85 0 0 85 0 85 -85 0 -85 0 0 85 0 85 85 0 85 0 0 85 0 85 -85 0 -85 0 0 85
0 85 85 0 85 0 0 85 0 85 -85 0 -85 0 0 85 0 85 85 0 85 0 0 85 0 85 -85 0
-85 0 0 85 0 85 85 0 85 0 0 85 0 85 -85 0 -85 0 0 85 0 85 85 0 85 0 0 85 0
85 -85 0 -85 0 0 85 0 85 85 0 85 0 0 85 0 85 -85 0 -85 0 0 85 0 85 85 0 85
0 0 85 0 85 -85 0 -85 0 0 85 0 85 85 0 85 0 0 85 0 85 -85 0 -85 0 0 85 0 85
85 0 85 0 0 85 0 85 -85 0 -85 0 0 85 0 85 85 0 85 0 0 85 0 85 -85 0 -85 0 0
85 0 85 85 0 85 0 0 -85z"/>
<path d="M850 8235 l0 -85 -85 0 -85 0 0 -85 0 -85 85 0 85 0 0 -85 0 -85 -85
0 -85 0 0 -85 0 -85 85 0 85 0 0 -85 0 -85 -85 0 -85 0 0 -85 0 -85 85 0 85 0
0 -85 0 -85 -85 0 -85 0 0 -85 0 -85 85 0 85 0 0 -85 0 -85 -85 0 -85 0 0 -85
0 -85 85 0 85 0 0 -85 0 -85 -85 0 -85 0 0 -85 0 -85 85 0 85 0 0 -85 0 -85
-85 0 -85 0 0 -85 0 -85 85 0 85 0 0 -85 0 -85 -85 0 -85 0 0 -85 0 -85 85 0
85 0 0 -85 0 -85 -85 0 -85 0 0 -85 0 -85 85 0 85 0 0 -85 0 -85 -85 0 -85 0
0 -85 0 -85 85 0 85 0 0 -85 0 -85 -85 0 -85 0 0 -85 0 -85 85 0 85 0 0 -85 0
-85 -85 0 -85 0 0 -85 0 -85 85 0 85 0 0 -85 0 -85 -85 0 -85 0 0 -85 0 -85
85 0 85 0 0 -85 0 -85 -85 0 -85 0 0 -85 0 -85 85 0 85 0 0 -85 0 -85 -85 0
-85 0 0 -85 0 -85 85 0 85 0 0 -85 0 -85 -85 0 -85 0 0 -85 0 -85 85 0 85 0 0
-85 0 -85 -85 0 -85 0 0 -85 0 -85 85 0 85 0 0 85 0 85 85 0 85 0 0 85 0 85
85 0 85 0 0 85 0 85 85 0 85 0 0 85 0 85 85 0 85 0 0 85 0 85 85 0 85 0 0 85
0 85 85 0 85 0 0 85 0 85 85 0 85 0 0 85 0 85 85 0 85 0 0 85 0 85 85 0 85 0
0 85 0 85 85 0 85 0 0 85 0 85 85 0 85 0 0 85 0 85 85 0 85 0 0 85 0 85 85 0
85 0 0 85 0 85 85 0 85 0 0 85 0 85 85 0 85 0 0 85 0 85 85 0 85 0 0 85 0 85
-85 0 -85 0 0 85 0 85 -85 0 -85 0 0 85 0 85 -85 0 -85 0 0 85 0 85 85 0 85 0
0 85 0 85 85 0 85 0 0 85 0 85 85 0 85 0 0 85 0 85 85 0 85 0 0 -85 0 -85 85
0 85 0 0 85 0 85 85 0 85 0 0 85 0 85 85 0 85 0 0 85 0 85 85 0 85 0 0 85 0
85 85 0 85 0 0 85 0 85 85 0 85 0 0 85 0 85 85 0 85 0 0 85 0 85 -85 0 -85 0
0 85 0 85 85 0 85 0 0 85 0 85 85 0 85 0 0 85 0 85 85 0 85 0 0 85 0 85 -85 0
-85 0 0 85 0 85 -85 0 -85 0 0 -85 0 -85 -85 0 -85 0 0 85 0 85 -85 0 -85 0 0
-85 0 -85 -85 0 -85 0 0 85 0 85 -85 0 -85 0 0 -85 0 -85 -85 0 -85 0 0 85 0
85 -85 0 -85 0 0 -85 0 -85 -85 0 -85 0 0 85 0 85 -85 0 -85 0 0 -85 0 -85
-85 0 -85 0 0 85 0 85 -85 0 -85 0 0 -85 0 -85 -85 0 -85 0 0 85 0 85 -85 0
-85 0 0 -85 0 -85 -85 0 -85 0 0 85 0 85 -85 0 -85 0 0 -85 0 -85 -85 0 -85 0
0 85 0 85 -85 0 -85 0 0 -85 0 -85 -85 0 -85 0 0 85 0 85 -85 0 -85 0 0 -85 0
-85 -85 0 -85 0 0 85 0 85 -85 0 -85 0 0 -85 0 -85 -85 0 -85 0 0 85 0 85 -85
0 -85 0 0 -85 0 -85 -85 0 -85 0 0 85 0 85 -85 0 -85 0 0 -85z m170 -170 l0
-85 85 0 85 0 0 85 0 85 85 0 85 0 0 -85 0 -85 85 0 85 0 0 85 0 85 85 0 85 0
0 -85 0 -85 85 0 85 0 0 85 0 85 85 0 85 0 0 -85 0 -85 85 0 85 0 0 85 0 85
85 0 85 0 0 -85 0 -85 85 0 85 0 0 85 0 85 85 0 85 0 0 -85 0 -85 85 0 85 0 0
85 0 85 85 0 85 0 0 -85 0 -85 85 0 85 0 0 85 0 85 85 0 85 0 0 -85 0 -85 85
0 85 0 0 85 0 85 85 0 85 0 0 -85 0 -85 85 0 85 0 0 85 0 85 85 0 85 0 0 -85
0 -85 85 0 85 0 0 85 0 85 85 0 85 0 0 -85 0 -85 85 0 85 0 0 85 0 85 85 0 85
0 0 -85 0 -85 85 0 85 0 0 85 0 85 85 0 85 0 0 -85 0 -85 -85 0 -85 0 0 -85 0
-85 -85 0 -85 0 0 -85 0 -85 -85 0 -85 0 0 -85 0 -85 85 0 85 0 0 -85 0 -85
-85 0 -85 0 0 -85 0 -85 -85 0 -85 0 0 -85 0 -85 -85 0 -85 0 0 -85 0 -85 -85
0 -85 0 0 -85 0 -85 -85 0 -85 0 0 -85 0 -85 -85 0 -85 0 0 85 0 85 -85 0 -85
0 0 -85 0 -85 -85 0 -85 0 0 -85 0 -85 -85 0 -85 0 0 -85 0 -85 -85 0 -85 0 0
-85 0 -85 -85 0 -85 0 0 -85 0 -85 85 0 85 0 0 -85 0 -85 85 0 85 0 0 -85 0
-85 85 0 85 0 0 -85 0 -85 -85 0 -85 0 0 -85 0 -85 -85 0 -85 0 0 -85 0 -85
-85 0 -85 0 0 -85 0 -85 -85 0 -85 0 0 -85 0 -85 -85 0 -85 0 0 -85 0 -85 -85
0 -85 0 0 -85 0 -85 -85 0 -85 0 0 -85 0 -85 -85 0 -85 0 0 -85 0 -85 -85 0
-85 0 0 -85 0 -85 -85 0 -85 0 0 -85 0 -85 -85 0 -85 0 0 -85 0 -85 -85 0 -85
0 0 -85 0 -85 -85 0 -85 0 0 -85 0 -85 -85 0 -85 0 0 -85 0 -85 -85 0 -85 0 0
85 0 85 85 0 85 0 0 85 0 85 -85 0 -85 0 0 85 0 85 85 0 85 0 0 85 0 85 -85 0
-85 0 0 85 0 85 85 0 85 0 0 85 0 85 -85 0 -85 0 0 85 0 85 85 0 85 0 0 85 0
85 -85 0 -85 0 0 85 0 85 85 0 85 0 0 85 0 85 -85 0 -85 0 0 85 0 85 85 0 85
0 0 85 0 85 -85 0 -85 0 0 85 0 85 85 0 85 0 0 85 0 85 -85 0 -85 0 0 85 0 85
85 0 85 0 0 85 0 85 -85 0 -85 0 0 85 0 85 85 0 85 0 0 85 0 85 -85 0 -85 0 0
85 0 85 85 0 85 0 0 85 0 85 -85 0 -85 0 0 85 0 85 85 0 85 0 0 85 0 85 -85 0
-85 0 0 85 0 85 85 0 85 0 0 85 0 85 -85 0 -85 0 0 85 0 85 85 0 85 0 0 85 0
85 -85 0 -85 0 0 85 0 85 85 0 85 0 0 85 0 85 -85 0 -85 0 0 85 0 85 85 0 85
0 0 85 0 85 -85 0 -85 0 0 85 0 85 85 0 85 0 0 -85z"/>
<path d="M1190 7895 l0 -85 -85 0 -85 0 0 -85 0 -85 85 0 85 0 0 -85 0 -85
-85 0 -85 0 0 -85 0 -85 85 0 85 0 0 -85 0 -85 -85 0 -85 0 0 -85 0 -85 85 0
85 0 0 -85 0 -85 -85 0 -85 0 0 -85 0 -85 85 0 85 0 0 -85 0 -85 -85 0 -85 0
0 -85 0 -85 85 0 85 0 0 -85 0 -85 -85 0 -85 0 0 -85 0 -85 85 0 85 0 0 -85 0
-85 -85 0 -85 0 0 -85 0 -85 85 0 85 0 0 -85 0 -85 -85 0 -85 0 0 -85 0 -85
85 0 85 0 0 -85 0 -85 -85 0 -85 0 0 -85 0 -85 85 0 85 0 0 -85 0 -85 -85 0
-85 0 0 -85 0 -85 85 0 85 0 0 -85 0 -85 -85 0 -85 0 0 -85 0 -85 85 0 85 0 0
-85 0 -85 -85 0 -85 0 0 -85 0 -85 85 0 85 0 0 -85 0 -85 -85 0 -85 0 0 -85 0
-85 85 0 85 0 0 -85 0 -85 -85 0 -85 0 0 -85 0 -85 85 0 85 0 0 85 0 85 85 0
85 0 0 85 0 85 85 0 85 0 0 85 0 85 85 0 85 0 0 85 0 85 85 0 85 0 0 85 0 85
85 0 85 0 0 85 0 85 85 0 85 0 0 85 0 85 85 0 85 0 0 85 0 85 85 0 85 0 0 85
0 85 85 0 85 0 0 85 0 85 85 0 85 0 0 85 0 85 85 0 85 0 0 85 0 85 85 0 85 0
0 85 0 85 -85 0 -85 0 0 85 0 85 -85 0 -85 0 0 85 0 85 -85 0 -85 0 0 85 0 85
85 0 85 0 0 85 0 85 85 0 85 0 0 85 0 85 85 0 85 0 0 85 0 85 85 0 85 0 0 85
0 85 85 0 85 0 0 85 0 85 85 0 85 0 0 -85 0 -85 85 0 85 0 0 85 0 85 85 0 85
0 0 85 0 85 85 0 85 0 0 85 0 85 85 0 85 0 0 85 0 85 85 0 85 0 0 85 0 85 -85
0 -85 0 0 85 0 85 85 0 85 0 0 85 0 85 85 0 85 0 0 85 0 85 -85 0 -85 0 0 -85
0 -85 -85 0 -85 0 0 85 0 85 -85 0 -85 0 0 -85 0 -85 -85 0 -85 0 0 85 0 85
-85 0 -85 0 0 -85 0 -85 -85 0 -85 0 0 85 0 85 -85 0 -85 0 0 -85 0 -85 -85 0
-85 0 0 85 0 85 -85 0 -85 0 0 -85 0 -85 -85 0 -85 0 0 85 0 85 -85 0 -85 0 0
-85 0 -85 -85 0 -85 0 0 85 0 85 -85 0 -85 0 0 -85 0 -85 -85 0 -85 0 0 85 0
85 -85 0 -85 0 0 -85 0 -85 -85 0 -85 0 0 85 0 85 -85 0 -85 0 0 -85 0 -85
-85 0 -85 0 0 85 0 85 -85 0 -85 0 0 -85 0 -85 -85 0 -85 0 0 85 0 85 -85 0
-85 0 0 -85z m170 -170 l0 -85 85 0 85 0 0 85 0 85 85 0 85 0 0 -85 0 -85 85
0 85 0 0 85 0 85 85 0 85 0 0 -85 0 -85 85 0 85 0 0 85 0 85 85 0 85 0 0 -85
0 -85 85 0 85 0 0 85 0 85 85 0 85 0 0 -85 0 -85 85 0 85 0 0 85 0 85 85 0 85
0 0 -85 0 -85 85 0 85 0 0 85 0 85 85 0 85 0 0 -85 0 -85 85 0 85 0 0 85 0 85
85 0 85 0 0 -85 0 -85 85 0 85 0 0 85 0 85 85 0 85 0 0 -85 0 -85 85 0 85 0 0
85 0 85 85 0 85 0 0 -85 0 -85 -85 0 -85 0 0 -85 0 -85 85 0 85 0 0 -85 0 -85
-85 0 -85 0 0 -85 0 -85 -85 0 -85 0 0 -85 0 -85 -85 0 -85 0 0 -85 0 -85 -85
0 -85 0 0 85 0 85 -85 0 -85 0 0 -85 0 -85 -85 0 -85 0 0 -85 0 -85 -85 0 -85
0 0 -85 0 -85 -85 0 -85 0 0 -85 0 -85 -85 0 -85 0 0 -85 0 -85 -85 0 -85 0 0
-85 0 -85 -85 0 -85 0 0 -85 0 -85 85 0 85 0 0 -85 0 -85 85 0 85 0 0 -85 0
-85 85 0 85 0 0 -85 0 -85 -85 0 -85 0 0 -85 0 -85 -85 0 -85 0 0 -85 0 -85
-85 0 -85 0 0 -85 0 -85 -85 0 -85 0 0 -85 0 -85 -85 0 -85 0 0 -85 0 -85 -85
0 -85 0 0 -85 0 -85 -85 0 -85 0 0 -85 0 -85 -85 0 -85 0 0 -85 0 -85 -85 0
-85 0 0 -85 0 -85 -85 0 -85 0 0 -85 0 -85 -85 0 -85 0 0 85 0 85 85 0 85 0 0
85 0 85 -85 0 -85 0 0 85 0 85 85 0 85 0 0 85 0 85 -85 0 -85 0 0 85 0 85 85
0 85 0 0 85 0 85 -85 0 -85 0 0 85 0 85 85 0 85 0 0 85 0 85 -85 0 -85 0 0 85
0 85 85 0 85 0 0 85 0 85 -85 0 -85 0 0 85 0 85 85 0 85 0 0 85 0 85 -85 0
-85 0 0 85 0 85 85 0 85 0 0 85 0 85 -85 0 -85 0 0 85 0 85 85 0 85 0 0 85 0
85 -85 0 -85 0 0 85 0 85 85 0 85 0 0 85 0 85 -85 0 -85 0 0 85 0 85 85 0 85
0 0 85 0 85 -85 0 -85 0 0 85 0 85 85 0 85 0 0 85 0 85 -85 0 -85 0 0 85 0 85
85 0 85 0 0 85 0 85 -85 0 -85 0 0 85 0 85 85 0 85 0 0 -85z"/>
<path d="M1530 7555 l0 -85 -85 0 -85 0 0 -85 0 -85 85 0 85 0 0 -85 0 -85
-85 0 -85 0 0 -85 0 -85 85 0 85 0 0 -85 0 -85 -85 0 -85 0 0 -85 0 -85 85 0
85 0 0 -85 0 -85 -85 0 -85 0 0 -85 0 -85 85 0 85 0 0 -85 0 -85 -85 0 -85 0
0 -85 0 -85 85 0 85 0 0 -85 0 -85 -85 0 -85 0 0 -85 0 -85 85 0 85 0 0 -85 0
-85 -85 0 -85 0 0 -85 0 -85 85 0 85 0 0 -85 0 -85 -85 0 -85 0 0 -85 0 -85
85 0 85 0 0 -85 0 -85 -85 0 -85 0 0 -85 0 -85 85 0 85 0 0 -85 0 -85 -85 0
-85 0 0 -85 0 -85 85 0 85 0 0 -85 0 -85 -85 0 -85 0 0 -85 0 -85 85 0 85 0 0
85 0 85 85 0 85 0 0 85 0 85 85 0 85 0 0 85 0 85 85 0 85 0 0 85 0 85 85 0 85
0 0 85 0 85 85 0 85 0 0 85 0 85 85 0 85 0 0 85 0 85 85 0 85 0 0 85 0 85 85
0 85 0 0 85 0 85 -85 0 -85 0 0 85 0 85 -85 0 -85 0 0 85 0 85 -85 0 -85 0 0
85 0 85 85 0 85 0 0 85 0 85 85 0 85 0 0 85 0 85 85 0 85 0 0 85 0 85 85 0 85
0 0 85 0 85 85 0 85 0 0 85 0 85 85 0 85 0 0 85 0 85 85 0 85 0 0 85 0 85 85
0 85 0 0 -85 0 -85 85 0 85 0 0 85 0 85 85 0 85 0 0 85 0 85 85 0 85 0 0 85 0
85 -85 0 -85 0 0 85 0 85 -85 0 -85 0 0 -85 0 -85 -85 0 -85 0 0 85 0 85 -85
0 -85 0 0 -85 0 -85 -85 0 -85 0 0 85 0 85 -85 0 -85 0 0 -85 0 -85 -85 0 -85
0 0 85 0 85 -85 0 -85 0 0 -85 0 -85 -85 0 -85 0 0 85 0 85 -85 0 -85 0 0 -85
0 -85 -85 0 -85 0 0 85 0 85 -85 0 -85 0 0 -85 0 -85 -85 0 -85 0 0 85 0 85
-85 0 -85 0 0 -85 0 -85 -85 0 -85 0 0 85 0 85 -85 0 -85 0 0 -85z m170 -170
l0 -85 85 0 85 0 0 85 0 85 85 0 85 0 0 -85 0 -85 85 0 85 0 0 85 0 85 85 0
85 0 0 -85 0 -85 85 0 85 0 0 85 0 85 85 0 85 0 0 -85 0 -85 85 0 85 0 0 85 0
85 85 0 85 0 0 -85 0 -85 85 0 85 0 0 85 0 85 85 0 85 0 0 -85 0 -85 85 0 85
0 0 85 0 85 85 0 85 0 0 -85 0 -85 85 0 85 0 0 85 0 85 85 0 85 0 0 -85 0 -85
-85 0 -85 0 0 -85 0 -85 -85 0 -85 0 0 85 0 85 -85 0 -85 0 0 -85 0 -85 -85 0
-85 0 0 -85 0 -85 -85 0 -85 0 0 -85 0 -85 -85 0 -85 0 0 -85 0 -85 -85 0 -85
0 0 -85 0 -85 -85 0 -85 0 0 -85 0 -85 -85 0 -85 0 0 -85 0 -85 -85 0 -85 0 0
-85 0 -85 -85 0 -85 0 0 -85 0 -85 85 0 85 0 0 -85 0 -85 85 0 85 0 0 -85 0
-85 85 0 85 0 0 -85 0 -85 -85 0 -85 0 0 -85 0 -85 -85 0 -85 0 0 -85 0 -85
-85 0 -85 0 0 -85 0 -85 -85 0 -85 0 0 -85 0 -85 -85 0 -85 0 0 -85 0 -85 -85
0 -85 0 0 -85 0 -85 -85 0 -85 0 0 85 0 85 85 0 85 0 0 85 0 85 -85 0 -85 0 0
85 0 85 85 0 85 0 0 85 0 85 -85 0 -85 0 0 85 0 85 85 0 85 0 0 85 0 85 -85 0
-85 0 0 85 0 85 85 0 85 0 0 85 0 85 -85 0 -85 0 0 85 0 85 85 0 85 0 0 85 0
85 -85 0 -85 0 0 85 0 85 85 0 85 0 0 85 0 85 -85 0 -85 0 0 85 0 85 85 0 85
0 0 85 0 85 -85 0 -85 0 0 85 0 85 85 0 85 0 0 85 0 85 -85 0 -85 0 0 85 0 85
85 0 85 0 0 85 0 85 -85 0 -85 0 0 85 0 85 85 0 85 0 0 -85z"/>
<path d="M1870 7215 l0 -85 -85 0 -85 0 0 -85 0 -85 85 0 85 0 0 -85 0 -85
-85 0 -85 0 0 -85 0 -85 85 0 85 0 0 -85 0 -85 -85 0 -85 0 0 -85 0 -85 85 0
85 0 0 -85 0 -85 -85 0 -85 0 0 -85 0 -85 85 0 85 0 0 -85 0 -85 -85 0 -85 0
0 -85 0 -85 85 0 85 0 0 -85 0 -85 -85 0 -85 0 0 -85 0 -85 85 0 85 0 0 -85 0
-85 -85 0 -85 0 0 -85 0 -85 85 0 85 0 0 -85 0 -85 -85 0 -85 0 0 -85 0 -85
85 0 85 0 0 85 0 85 85 0 85 0 0 85 0 85 85 0 85 0 0 85 0 85 85 0 85 0 0 85
0 85 85 0 85 0 0 85 0 85 -85 0 -85 0 0 85 0 85 -85 0 -85 0 0 85 0 85 -85 0
-85 0 0 85 0 85 85 0 85 0 0 85 0 85 85 0 85 0 0 85 0 85 85 0 85 0 0 85 0 85
85 0 85 0 0 85 0 85 85 0 85 0 0 85 0 85 85 0 85 0 0 85 0 85 85 0 85 0 0 85
0 85 85 0 85 0 0 85 0 85 -85 0 -85 0 0 -85 0 -85 -85 0 -85 0 0 85 0 85 -85
0 -85 0 0 -85 0 -85 -85 0 -85 0 0 85 0 85 -85 0 -85 0 0 -85 0 -85 -85 0 -85
0 0 85 0 85 -85 0 -85 0 0 -85 0 -85 -85 0 -85 0 0 85 0 85 -85 0 -85 0 0 -85z
m170 -170 l0 -85 85 0 85 0 0 85 0 85 85 0 85 0 0 -85 0 -85 85 0 85 0 0 85 0
85 85 0 85 0 0 -85 0 -85 85 0 85 0 0 85 0 85 85 0 85 0 0 -85 0 -85 -85 0
-85 0 0 -85 0 -85 -85 0 -85 0 0 -85 0 -85 -85 0 -85 0 0 -85 0 -85 -85 0 -85
0 0 -85 0 -85 -85 0 -85 0 0 -85 0 -85 -85 0 -85 0 0 -85 0 -85 -85 0 -85 0 0
85 0 85 85 0 85 0 0 85 0 85 -85 0 -85 0 0 85 0 85 85 0 85 0 0 85 0 85 -85 0
-85 0 0 85 0 85 85 0 85 0 0 85 0 85 -85 0 -85 0 0 85 0 85 85 0 85 0 0 -85z
m0 -1360 l0 -85 85 0 85 0 0 -85 0 -85 85 0 85 0 0 -85 0 -85 -85 0 -85 0 0
-85 0 -85 -85 0 -85 0 0 -85 0 -85 -85 0 -85 0 0 85 0 85 85 0 85 0 0 85 0 85
-85 0 -85 0 0 85 0 85 85 0 85 0 0 85 0 85 -85 0 -85 0 0 85 0 85 85 0 85 0 0
-85z"/>
<path d="M2210 6875 l0 -85 -85 0 -85 0 0 -85 0 -85 85 0 85 0 0 -85 0 -85
-85 0 -85 0 0 -85 0 -85 85 0 85 0 0 85 0 85 85 0 85 0 0 85 0 85 85 0 85 0 0
85 0 85 85 0 85 0 0 85 0 85 -85 0 -85 0 0 -85 0 -85 -85 0 -85 0 0 85 0 85
-85 0 -85 0 0 -85z m170 -170 l0 -85 -85 0 -85 0 0 85 0 85 85 0 85 0 0 -85z"/>
<path d="M2040 5345 l0 -85 85 0 85 0 0 85 0 85 -85 0 -85 0 0 -85z"/>
<path d="M680 2285 l0 -85 85 0 85 0 0 85 0 85 -85 0 -85 0 0 -85z"/>
<path d="M6970 8575 l0 -85 85 0 85 0 0 85 0 85 -85 0 -85 0 0 -85z"/>
<path d="M6460 8065 l0 -85 -85 0 -85 0 0 -85 0 -85 -85 0 -85 0 0 -85 0 -85
-85 0 -85 0 0 -85 0 -85 85 0 85 0 0 85 0 85 85 0 85 0 0 85 0 85 85 0 85 0 0
85 0 85 85 0 85 0 0 85 0 85 -85 0 -85 0 0 -85z"/>
<path d="M8500 7045 l0 -85 -85 0 -85 0 0 -85 0 -85 -85 0 -85 0 0 -85 0 -85
-85 0 -85 0 0 -85 0 -85 -85 0 -85 0 0 -85 0 -85 -85 0 -85 0 0 -85 0 -85 -85
0 -85 0 0 -85 0 -85 -85 0 -85 0 0 -85 0 -85 -85 0 -85 0 0 -85 0 -85 -85 0
-85 0 0 -85 0 -85 -85 0 -85 0 0 -85 0 -85 -85 0 -85 0 0 -85 0 -85 -85 0 -85
0 0 -85 0 -85 -85 0 -85 0 0 -85 0 -85 -85 0 -85 0 0 -85 0 -85 -85 0 -85 0 0
-85 0 -85 -85 0 -85 0 0 -85 0 -85 -85 0 -85 0 0 -85 0 -85 -85 0 -85 0 0 -85
0 -85 -85 0 -85 0 0 -85 0 -85 -85 0 -85 0 0 -85 0 -85 -85 0 -85 0 0 -85 0
-85 -85 0 -85 0 0 -85 0 -85 -85 0 -85 0 0 -85 0 -85 -85 0 -85 0 0 -85 0 -85
-85 0 -85 0 0 -85 0 -85 -85 0 -85 0 0 -85 0 -85 -85 0 -85 0 0 -85 0 -85 -85
0 -85 0 0 -85 0 -85 -85 0 -85 0 0 -85 0 -85 -85 0 -85 0 0 -85 0 -85 -85 0
-85 0 0 -85 0 -85 -85 0 -85 0 0 -85 0 -85 -85 0 -85 0 0 -85 0 -85 -85 0 -85
0 0 -85 0 -85 -85 0 -85 0 0 -85 0 -85 -85 0 -85 0 0 85 0 85 -85 0 -85 0 0
-85 0 -85 -85 0 -85 0 0 -85 0 -85 -85 0 -85 0 0 -85 0 -85 -85 0 -85 0 0 -85
0 -85 -85 0 -85 0 0 85 0 85 -85 0 -85 0 0 -85 0 -85 -85 0 -85 0 0 -85 0 -85
85 0 85 0 0 85 0 85 85 0 85 0 0 -85 0 -85 85 0 85 0 0 85 0 85 85 0 85 0 0
-85 0 -85 85 0 85 0 0 85 0 85 85 0 85 0 0 -85 0 -85 85 0 85 0 0 85 0 85 85
0 85 0 0 -85 0 -85 85 0 85 0 0 85 0 85 85 0 85 0 0 -85 0 -85 85 0 85 0 0 85
0 85 85 0 85 0 0 -85 0 -85 85 0 85 0 0 85 0 85 85 0 85 0 0 -85 0 -85 85 0
85 0 0 85 0 85 85 0 85 0 0 -85 0 -85 85 0 85 0 0 85 0 85 85 0 85 0 0 -85 0
-85 85 0 85 0 0 85 0 85 85 0 85 0 0 -85 0 -85 85 0 85 0 0 85 0 85 85 0 85 0
0 -85 0 -85 85 0 85 0 0 85 0 85 85 0 85 0 0 -85 0 -85 85 0 85 0 0 85 0 85
85 0 85 0 0 -85 0 -85 85 0 85 0 0 85 0 85 85 0 85 0 0 -85 0 -85 85 0 85 0 0
85 0 85 85 0 c61 0 85 4 86 13 0 6 0 45 -1 85 l-1 72 85 0 86 0 0 -85 0 -85
-85 0 -85 0 0 -85 0 -85 85 0 85 0 0 85 0 85 85 0 85 0 0 85 0 85 -85 0 -85 0
0 85 0 85 85 0 85 0 0 -85 0 -85 85 0 85 0 0 85 0 85 85 0 85 0 0 -85 0 -85
-85 0 -85 0 0 -85 0 -85 85 0 85 0 0 -85 0 -85 85 0 c95 0 86 -9 86 90 0 28 0
57 0 65 -1 12 -17 15 -86 15 l-85 0 0 85 0 85 85 0 85 0 0 -85 0 -85 85 0 85
0 0 -85 0 -85 85 0 85 0 0 84 0 84 85 1 85 1 0 -85 0 -85 85 0 85 0 0 85 0 85
85 0 85 0 0 85 0 85 85 0 85 0 0 85 0 85 85 0 85 0 0 -85 0 -85 -85 0 c-74 0
-85 -2 -86 -17 -2 -40 3 -148 6 -152 3 -2 40 -3 85 -2 l80 2 0 -86 0 -85 85 0
85 0 0 85 0 85 85 0 85 0 0 85 0 85 -85 0 -85 0 0 85 0 85 85 0 85 0 0 85 0
85 -85 0 -85 0 0 85 0 85 85 0 85 0 0 85 0 85 -85 0 -85 0 0 85 0 85 85 0 85
0 0 85 0 85 -85 0 -85 0 0 85 0 85 85 0 85 0 0 85 0 85 -85 0 -85 0 0 85 0 85
85 0 85 0 0 85 0 85 -85 0 -85 0 0 85 0 85 85 0 85 0 0 85 0 85 -85 0 -85 0 0
85 0 85 85 0 85 0 0 85 0 85 -85 0 -85 0 0 85 0 85 85 0 85 0 0 85 0 85 -85 0
-85 0 0 85 0 85 85 0 85 0 0 85 0 85 -85 0 -85 0 0 85 0 85 85 0 85 0 0 85 0
85 -85 0 -85 0 0 85 0 85 85 0 85 0 0 85 0 85 -85 0 -85 0 0 85 0 85 85 0 85
0 0 85 0 85 -85 0 -85 0 0 85 0 85 85 0 85 0 0 85 0 85 -85 0 -85 0 0 85 0 85
85 0 85 0 0 85 0 85 -85 0 -85 0 0 85 0 85 85 0 85 0 0 85 0 85 -85 0 -85 0 0
85 0 85 85 0 85 0 0 85 0 85 -85 0 -85 0 0 85 0 85 85 0 85 0 0 85 0 85 -85 0
-85 0 0 85 0 85 85 0 85 0 0 85 0 85 -85 0 -85 0 0 85 0 85 85 0 85 0 0 85 0
85 -85 0 -85 0 0 -85z m0 -340 l0 -85 -85 0 -85 0 0 -85 0 -85 85 0 85 0 0
-85 0 -85 -85 0 -85 0 0 -85 0 -85 85 0 85 0 0 -85 0 -85 -85 0 -85 0 0 -85 0
-85 85 0 85 0 0 -85 0 -85 -85 0 -85 0 0 -85 0 -85 85 0 85 0 0 -85 0 -85 -85
0 -85 0 0 -85 0 -85 85 0 85 0 0 -85 0 -85 -85 0 -85 0 0 -85 0 -85 85 0 85 0
0 -85 0 -85 -85 0 -85 0 0 -85 0 -85 85 0 85 0 0 -85 0 -85 -85 0 -85 0 0 -85
0 -85 85 0 85 0 0 -85 0 -85 -85 0 -85 0 0 -85 0 -85 85 0 85 0 0 -85 0 -85
-85 0 -85 0 0 -85 0 -85 85 0 85 0 0 -85 0 -85 -85 0 -85 0 0 -85 0 -85 85 0
85 0 0 -85 0 -85 -85 0 -85 0 0 -85 0 -85 85 0 85 0 0 -85 0 -85 -85 0 -85 0
0 -85 0 -85 85 0 85 0 0 -85 0 -85 -85 0 -85 0 0 -85 0 -85 85 0 85 0 0 -85 0
-85 -85 0 -85 0 0 -85 0 -85 85 0 85 0 0 -85 0 -85 -85 0 -85 0 0 -85 0 -85
85 0 85 0 0 -85 0 -85 -85 0 -85 0 0 -85 0 -85 85 0 85 0 0 -85 0 -85 -85 0
-85 0 0 85 0 85 -85 0 -85 0 0 -85 0 -85 -85 0 -85 0 0 -85 0 -85 -85 0 -85 0
0 -85 0 -85 -85 0 -85 0 0 85 0 85 -85 0 -85 0 0 -85 0 -85 -85 0 -85 0 0 85
0 85 -85 0 -85 0 0 85 0 85 -85 0 -85 0 0 85 0 85 -85 0 -85 0 0 -85 0 -85
-85 0 -85 0 0 85 0 85 -85 0 -85 0 0 -85 0 -85 -85 0 -85 0 0 -85 0 -85 -85 0
-85 0 0 -85 0 -85 -85 0 -85 0 0 85 0 85 -85 0 -85 0 0 -85 0 -85 -85 0 -85 0
0 85 0 85 -85 0 -85 0 0 -85 0 -85 -85 0 -85 0 0 85 0 85 -85 0 -85 0 0 -85 0
-85 -85 0 -85 0 0 85 0 85 -85 0 -85 0 0 -85 0 -85 -85 0 -85 0 0 85 0 85 -85
0 -85 0 0 -85 0 -85 -85 0 -85 0 0 85 0 85 -85 0 -85 0 0 -85 0 -85 -85 0 -85
0 0 85 0 85 -85 0 -85 0 0 -85 0 -85 -85 0 -85 0 0 85 0 85 -85 0 -85 0 0 -85
0 -85 -85 0 -85 0 0 85 0 85 -85 0 -85 0 0 -85 0 -85 -85 0 -85 0 0 85 0 85
-85 0 -85 0 0 -85 0 -85 -85 0 -85 0 0 85 0 85 -85 0 -85 0 0 -85 0 -85 -85 0
-85 0 0 85 0 85 -85 0 -85 0 0 -85 0 -85 -85 0 -85 0 0 85 0 85 85 0 85 0 0
85 0 85 85 0 85 0 0 85 0 85 85 0 85 0 0 -85 0 -85 85 0 85 0 0 85 0 85 85 0
85 0 0 85 0 85 85 0 85 0 0 85 0 85 85 0 85 0 0 85 0 85 85 0 85 0 0 85 0 85
85 0 85 0 0 85 0 85 85 0 85 0 0 85 0 85 85 0 85 0 0 85 0 85 85 0 85 0 0 85
0 85 85 0 85 0 0 85 0 85 85 0 85 0 0 85 0 85 85 0 85 0 0 85 0 85 85 0 85 0
0 85 0 85 85 0 85 0 0 85 0 85 85 0 85 0 0 85 0 85 85 0 85 0 0 85 0 85 85 0
85 0 0 85 0 85 85 0 85 0 0 85 0 85 85 0 85 0 0 85 0 85 85 0 85 0 0 85 0 85
85 0 85 0 0 85 0 85 85 0 85 0 0 85 0 85 85 0 85 0 0 85 0 85 85 0 85 0 0 85
0 85 85 0 85 0 0 85 0 85 85 0 85 0 0 85 0 85 85 0 85 0 0 85 0 85 85 0 85 0
0 85 0 85 85 0 85 0 0 85 0 85 85 0 85 0 0 85 0 85 85 0 85 0 0 85 0 85 85 0
85 0 0 85 0 85 85 0 85 0 0 85 0 85 85 0 85 0 0 85 0 85 85 0 85 0 0 85 0 85
85 0 85 0 0 -85z m0 -6120 l0 -85 -85 0 -85 0 0 85 0 85 85 0 85 0 0 -85z"/>
<path d="M8160 6365 l0 -85 -85 0 -85 0 0 -85 0 -85 -85 0 -85 0 0 -85 0 -85
-85 0 -85 0 0 -85 0 -85 -85 0 -85 0 0 -85 0 -85 -85 0 -85 0 0 -85 0 -85 -85
0 -85 0 0 -85 0 -85 -85 0 -85 0 0 -85 0 -85 -85 0 -85 0 0 -85 0 -85 -85 0
-85 0 0 -85 0 -85 -85 0 -85 0 0 -85 0 -85 -85 0 -85 0 0 -85 0 -85 -85 0 -85
0 0 -85 0 -85 -85 0 -85 0 0 -85 0 -85 -85 0 -85 0 0 -85 0 -85 -85 0 -85 0 0
-85 0 -85 -85 0 -85 0 0 -85 0 -85 -85 0 -85 0 0 -85 0 -85 -85 0 -85 0 0 -85
0 -85 -85 0 -85 0 0 -85 0 -85 -85 0 -85 0 0 -85 0 -85 -85 0 -85 0 0 -85 0
-85 -85 0 -85 0 0 -85 0 -85 -85 0 -85 0 0 -85 0 -85 -85 0 -85 0 0 -85 0 -85
-85 0 -85 0 0 -85 0 -85 -85 0 -85 0 0 -85 0 -85 -85 0 -85 0 0 -85 0 -85 -85
0 -85 0 0 -85 0 -85 -85 0 -85 0 0 -85 0 -85 -85 0 -85 0 0 -85 0 -85 -85 0
-85 0 0 -85 0 -85 -85 0 -85 0 0 -85 0 -85 -85 0 -85 0 0 -85 0 -85 85 0 85 0
0 85 0 85 85 0 85 0 0 -85 0 -85 85 0 85 0 0 85 0 85 85 0 85 0 0 -85 0 -85
85 0 85 0 0 85 0 85 85 0 85 0 0 -85 0 -85 85 0 85 0 0 85 0 85 85 0 85 0 0
-85 0 -85 85 0 85 0 0 85 0 85 85 0 85 0 0 -85 0 -85 85 0 85 0 0 85 0 85 85
0 85 0 0 -85 0 -85 85 0 85 0 0 85 0 85 85 0 85 0 0 -85 0 -85 85 0 85 0 0 85
0 85 85 0 85 0 0 -85 0 -85 85 0 85 0 0 85 0 85 85 0 85 0 0 -85 0 -85 85 0
85 0 0 85 0 85 85 0 85 0 0 -85 0 -85 85 0 85 0 0 85 0 85 -85 0 -85 0 0 85 0
85 85 0 85 0 0 -84 c0 -46 4 -86 10 -88 5 -1 43 -2 85 0 l75 4 0 84 0 84 85 0
85 0 0 85 0 85 85 0 85 0 0 -85 0 -85 85 0 85 0 0 85 0 85 85 0 85 0 0 -85 0
-85 85 0 85 0 0 -85 0 -85 85 0 85 0 0 -85 c0 -81 1 -85 23 -86 43 -1 142 3
145 6 2 2 4 40 3 84 l-1 81 85 0 85 0 0 -85 0 -85 85 0 85 0 0 85 0 85 85 0
85 0 0 85 0 85 85 0 85 0 0 85 0 85 85 0 85 0 0 85 0 85 -85 0 -85 0 0 85 0
85 85 0 85 0 0 85 0 85 -85 0 -85 0 0 85 0 85 85 0 85 0 0 85 0 85 -85 0 -85
0 0 85 0 85 85 0 85 0 0 85 0 85 -85 0 -85 0 0 85 0 85 85 0 85 0 0 85 0 85
-85 0 -85 0 0 85 0 85 85 0 85 0 0 85 0 85 -85 0 -85 0 0 85 0 85 85 0 85 0 0
85 0 85 -85 0 -85 0 0 85 0 85 85 0 85 0 0 85 0 85 -85 0 -85 0 0 85 0 85 85
0 85 0 0 85 0 85 -85 0 -85 0 0 85 0 85 85 0 85 0 0 85 0 85 -85 0 -85 0 0 85
0 85 85 0 85 0 0 85 0 85 -85 0 -85 0 0 85 0 85 85 0 85 0 0 85 0 85 -85 0
-85 0 0 85 0 85 85 0 85 0 0 85 0 85 -85 0 -85 0 0 85 0 85 85 0 85 0 0 85 0
85 -85 0 -85 0 0 85 0 85 85 0 85 0 0 85 0 85 -85 0 -85 0 0 85 0 85 85 0 85
0 0 85 0 85 -85 0 -85 0 0 -85z m0 -340 l0 -85 -85 0 -85 0 0 -85 0 -85 85 0
85 0 0 -85 0 -85 -85 0 -85 0 0 -85 0 -85 85 0 85 0 0 -85 0 -85 -85 0 -85 0
0 -85 0 -85 85 0 85 0 0 -85 0 -85 -85 0 -85 0 0 -85 0 -85 85 0 85 0 0 -85 0
-85 -85 0 -85 0 0 -85 0 -85 85 0 85 0 0 -85 0 -85 -85 0 -85 0 0 -85 0 -85
85 0 85 0 0 -85 0 -85 -85 0 -85 0 0 -85 0 -85 85 0 85 0 0 -85 0 -85 -85 0
-85 0 0 -85 0 -85 85 0 85 0 0 -85 0 -85 -85 0 -85 0 0 -85 0 -85 85 0 85 0 0
-85 0 -85 -85 0 -85 0 0 -85 0 -85 85 0 85 0 0 -85 0 -85 -85 0 -85 0 0 -85 0
-85 85 0 85 0 0 -85 0 -85 -85 0 -85 0 0 -85 0 -85 85 0 85 0 0 -85 0 -85 -85
0 -85 0 0 -85 0 -85 85 0 85 0 0 -85 0 -85 -85 0 -85 0 0 -85 0 -85 85 0 85 0
0 -85 0 -85 -85 0 -85 0 0 -85 0 -85 -85 0 -85 0 0 -85 0 -85 -85 0 -85 0 0
85 0 85 -85 0 -85 0 0 -85 0 -85 -85 0 -85 0 0 85 0 85 -85 0 -85 0 0 85 0 85
-85 0 -85 0 0 85 0 85 -85 0 -85 0 0 -85 0 -85 -85 0 -85 0 0 85 0 85 -85 0
-85 0 0 -85 0 -85 -85 0 -85 0 0 -85 0 -85 -85 0 -85 0 0 85 0 85 -85 0 -85 0
0 -85 0 -85 -85 0 -85 0 0 -85 0 -85 -85 0 -85 0 0 85 0 85 -85 0 -85 0 0 -85
0 -85 -85 0 -85 0 0 85 0 85 -85 0 -85 0 0 -85 0 -85 -85 0 -85 0 0 85 0 85
-85 0 -85 0 0 -85 0 -85 -85 0 -85 0 0 85 0 85 -85 0 -85 0 0 -85 0 -85 -85 0
-85 0 0 85 0 85 -85 0 -85 0 0 -85 0 -85 -85 0 -85 0 0 85 0 85 -85 0 -85 0 0
-85 0 -85 -85 0 -85 0 0 85 0 85 -85 0 -85 0 0 -85 0 -85 -85 0 -85 0 0 85 0
85 -85 0 -85 0 0 -85 0 -85 -85 0 -85 0 0 85 0 85 85 0 85 0 0 85 0 85 85 0
85 0 0 85 0 85 85 0 85 0 0 85 0 85 85 0 85 0 0 85 0 85 85 0 85 0 0 85 0 85
85 0 85 0 0 85 0 85 85 0 85 0 0 85 0 85 85 0 85 0 0 85 0 85 85 0 85 0 0 85
0 85 85 0 85 0 0 85 0 85 85 0 85 0 0 85 0 85 85 0 85 0 0 85 0 85 85 0 85 0
0 85 0 85 85 0 85 0 0 85 0 85 85 0 85 0 0 85 0 85 85 0 85 0 0 85 0 85 85 0
85 0 0 85 0 85 85 0 85 0 0 85 0 85 85 0 85 0 0 85 0 85 85 0 85 0 0 85 0 85
85 0 85 0 0 85 0 85 85 0 85 0 0 85 0 85 85 0 85 0 0 85 0 85 85 0 85 0 0 85
0 85 85 0 85 0 0 85 0 85 85 0 85 0 0 85 0 85 85 0 85 0 0 85 0 85 85 0 85 0
0 85 0 85 85 0 85 0 0 85 0 85 85 0 85 0 0 85 0 85 85 0 85 0 0 -85z"/>
<path d="M7820 5685 l0 -85 -85 0 -85 0 0 -85 0 -85 -85 0 -85 0 0 -85 0 -85
-85 0 -85 0 0 -85 0 -85 -85 0 -85 0 0 -85 0 -85 -85 0 -85 0 0 -85 0 -85 -85
0 -85 0 0 -85 0 -85 -85 0 -85 0 0 -85 0 -85 -85 0 -85 0 0 -85 0 -85 -85 0
-85 0 0 -85 0 -85 -85 0 -85 0 0 -85 0 -85 -85 0 -85 0 0 -85 0 -85 -85 0 -85
0 0 -85 0 -85 -85 0 -85 0 0 -85 0 -85 -85 0 -85 0 0 -85 0 -85 -85 0 -85 0 0
-85 0 -85 -85 0 -85 0 0 -85 0 -85 -85 0 -85 0 0 -85 0 -85 -85 0 -85 0 0 -85
0 -85 -85 0 -85 0 0 -85 0 -85 -85 0 -85 0 0 -85 0 -85 -85 0 -85 0 0 -85 0
-85 -85 0 -85 0 0 -85 0 -85 -85 0 -85 0 0 -85 0 -85 -85 0 -85 0 0 -85 0 -85
-85 0 -85 0 0 -85 0 -85 -85 0 -85 0 0 -85 0 -85 -85 0 -85 0 0 -85 0 -85 85
0 85 0 0 85 0 85 85 0 85 0 0 -85 0 -85 85 0 85 0 0 85 0 85 85 0 85 0 0 -85
0 -85 85 0 85 0 0 85 0 85 85 0 85 0 0 -85 0 -85 85 0 85 0 0 85 0 85 85 0 85
0 0 -85 0 -85 85 0 85 0 0 85 0 85 85 0 85 0 0 -85 0 -85 85 0 85 0 0 85 0 85
85 0 85 0 0 -85 0 -85 85 0 85 0 0 85 0 85 85 0 85 0 0 -85 0 -85 85 0 85 0 0
85 0 85 85 0 85 0 0 85 0 85 85 0 85 0 0 -85 0 -85 85 0 85 0 0 85 0 85 85 0
85 0 0 85 0 85 85 0 85 0 0 -85 0 -85 85 0 85 0 0 85 0 85 85 0 85 0 0 -85 0
-85 85 0 85 0 0 -85 0 -85 85 0 85 0 0 -85 0 -85 85 0 85 0 0 85 0 85 85 0 85
0 0 -85 0 -85 85 0 85 0 0 85 0 85 85 0 85 0 0 85 0 85 -85 0 -85 0 0 85 0 85
85 0 85 0 0 85 0 85 -85 0 -85 0 0 85 0 85 85 0 85 0 0 85 0 85 -85 0 -85 0 0
85 0 85 85 0 85 0 0 85 0 85 -85 0 -85 0 0 85 0 85 85 0 85 0 0 85 0 85 -85 0
-85 0 0 85 0 85 85 0 85 0 0 85 0 85 -85 0 -85 0 0 85 0 85 85 0 85 0 0 85 0
85 -85 0 -85 0 0 85 0 85 85 0 85 0 0 85 0 85 -85 0 -85 0 0 85 0 85 85 0 85
0 0 85 0 85 -85 0 -85 0 0 85 0 85 85 0 85 0 0 85 0 85 -85 0 -85 0 0 85 0 85
85 0 85 0 0 85 0 85 -85 0 -85 0 0 85 0 85 85 0 85 0 0 85 0 85 -85 0 -85 0 0
85 0 85 85 0 85 0 0 85 0 85 -85 0 -85 0 0 85 0 85 85 0 85 0 0 85 0 85 -85 0
-85 0 0 -85z m0 -340 l0 -85 -85 0 -85 0 0 -85 0 -85 85 0 85 0 0 -85 0 -85
-85 0 -85 0 0 -85 0 -85 85 0 85 0 0 -85 0 -85 -85 0 -85 0 0 -85 0 -85 85 0
85 0 0 -85 0 -85 -85 0 -85 0 0 -85 0 -85 85 0 85 0 0 -85 0 -85 -85 0 -85 0
0 -85 0 -85 85 0 85 0 0 -85 0 -85 -85 0 -85 0 0 -85 0 -85 85 0 85 0 0 -85 0
-85 -85 0 -85 0 0 -85 0 -85 85 0 85 0 0 -85 0 -85 -85 0 -85 0 0 -85 0 -85
85 0 85 0 0 -85 0 -85 -85 0 -85 0 0 -85 0 -85 85 0 85 0 0 -85 0 -85 -85 0
-85 0 0 -85 0 -85 85 0 85 0 0 -85 0 -85 -85 0 -85 0 0 -85 0 -85 85 0 85 0 0
-85 0 -85 -85 0 -85 0 0 -85 0 -85 85 0 85 0 0 -85 0 -85 -85 0 -85 0 0 85 0
85 -85 0 -85 0 0 -85 0 -85 -85 0 -85 0 0 85 0 85 -85 0 -85 0 0 85 0 85 -85
0 -85 0 0 85 0 85 -85 0 -85 0 0 -85 0 -85 -85 0 -85 0 0 85 0 85 -85 0 -85 0
0 -85 0 -85 -85 0 -85 0 0 -85 0 -85 -85 0 -85 0 0 85 0 85 -85 0 -85 0 0 -85
0 -85 -85 0 -85 0 0 -85 0 -85 -85 0 -85 0 0 85 0 85 -85 0 -85 0 0 -85 0 -85
-85 0 -85 0 0 85 0 85 -85 0 -85 0 0 -85 0 -85 -85 0 -85 0 0 85 0 85 -85 0
-85 0 0 -85 0 -85 -85 0 -85 0 0 85 0 85 -85 0 -85 0 0 -85 0 -85 -85 0 -85 0
0 85 0 85 -85 0 -85 0 0 -85 0 -85 -85 0 -85 0 0 85 0 85 -85 0 -85 0 0 -85 0
-85 -85 0 -85 0 0 85 0 85 85 0 85 0 0 85 0 85 85 0 85 0 0 85 0 85 85 0 85 0
0 85 0 85 85 0 85 0 0 85 0 85 85 0 85 0 0 85 0 85 85 0 85 0 0 85 0 85 85 0
85 0 0 85 0 85 85 0 85 0 0 85 0 85 85 0 85 0 0 85 0 85 85 0 85 0 0 85 0 85
85 0 85 0 0 85 0 85 85 0 85 0 0 85 0 85 85 0 85 0 0 85 0 85 85 0 85 0 0 85
0 85 85 0 85 0 0 85 0 85 85 0 85 0 0 85 0 85 85 0 85 0 0 85 0 85 85 0 85 0
0 85 0 85 85 0 85 0 0 85 0 85 85 0 85 0 0 85 0 85 85 0 85 0 0 85 0 85 85 0
85 0 0 85 0 85 85 0 85 0 0 85 0 85 85 0 85 0 0 85 0 85 85 0 85 0 0 -85z"/>
<path d="M7480 5005 l0 -85 -85 0 -85 0 0 -85 0 -85 -85 0 -85 0 0 -85 0 -85
-85 0 -85 0 0 -85 0 -85 -85 0 -85 0 0 -85 0 -85 -85 0 -85 0 0 -85 0 -85 -85
0 -85 0 0 -85 0 -85 -85 0 -85 0 0 -85 0 -85 -85 0 -85 0 0 -85 0 -85 -85 0
-85 0 0 -85 0 -85 -85 0 -85 0 0 -85 0 -85 -85 0 -85 0 0 -85 0 -85 -85 0 -85
0 0 -85 0 -85 -85 0 -85 0 0 -85 0 -85 -85 0 -85 0 0 -85 0 -85 -85 0 -85 0 0
-85 0 -85 -85 0 -85 0 0 -85 0 -85 -85 0 -85 0 0 -85 0 -85 -85 0 -85 0 0 -85
0 -85 -85 0 -85 0 0 -85 0 -85 -85 0 -85 0 0 -85 0 -85 -85 0 -85 0 0 -85 0
-85 85 0 85 0 0 85 0 85 85 0 85 0 0 -85 0 -85 85 0 85 0 0 85 0 85 85 0 85 0
0 -85 0 -85 85 0 85 0 0 85 0 85 85 0 85 0 0 -85 0 -85 85 0 85 0 0 85 0 85
85 0 85 0 0 -85 0 -85 85 0 85 0 0 85 0 85 85 0 85 0 0 -85 0 -85 85 0 85 0 0
85 0 85 85 0 85 0 0 85 0 85 85 0 85 0 0 -85 0 -85 85 0 85 0 0 85 0 85 85 0
85 0 0 85 0 85 85 0 85 0 0 -85 0 -85 85 0 85 0 0 85 0 85 85 0 85 0 0 -85 0
-85 85 0 85 0 0 -85 0 -85 85 0 85 0 0 -85 0 -85 85 0 85 0 0 85 0 85 85 0 85
0 0 85 0 85 -85 0 -85 0 0 85 0 85 85 0 85 0 0 85 0 85 -85 0 -85 0 0 85 0 85
85 0 85 0 0 85 0 85 -85 0 -85 0 0 85 0 85 85 0 85 0 0 85 0 85 -85 0 -85 0 0
85 0 85 85 0 85 0 0 85 0 85 -85 0 -85 0 0 85 0 85 85 0 85 0 0 85 0 85 -85 0
-85 0 0 85 0 85 85 0 85 0 0 85 0 85 -85 0 -85 0 0 85 0 85 85 0 85 0 0 85 0
85 -85 0 -85 0 0 85 0 85 85 0 85 0 0 85 0 85 -85 0 -85 0 0 85 0 85 85 0 85
0 0 85 0 85 -85 0 -85 0 0 85 0 85 85 0 85 0 0 85 0 85 -85 0 -85 0 0 -85z m0
-340 l0 -85 -85 0 -85 0 0 -85 0 -85 85 0 85 0 0 -85 0 -85 -85 0 -85 0 0 -85
0 -85 85 0 85 0 0 -85 0 -85 -85 0 -85 0 0 -85 0 -85 85 0 85 0 0 -85 0 -85
-85 0 -85 0 0 -85 0 -85 85 0 85 0 0 -85 0 -85 -85 0 -85 0 0 -85 0 -85 85 0
85 0 0 -85 0 -85 -85 0 -85 0 0 -85 0 -85 85 0 85 0 0 -85 0 -85 -85 0 -85 0
0 -85 0 -85 85 0 85 0 0 -85 0 -85 -85 0 -85 0 0 -85 0 -85 85 0 85 0 0 -85 0
-85 -85 0 -85 0 0 -85 0 -85 85 0 85 0 0 -85 0 -85 -85 0 -85 0 0 85 0 85 -85
0 -85 0 0 85 0 85 -85 0 -85 0 0 85 0 85 -85 0 -85 0 0 -85 0 -85 -85 0 -85 0
0 85 0 85 -85 0 -85 0 0 -85 0 -85 -85 0 -85 0 0 -85 0 -85 -85 0 -85 0 0 85
0 85 -85 0 -85 0 0 -85 0 -85 -85 0 -85 0 0 -85 0 -85 -85 0 -85 0 0 85 0 85
-85 0 -85 0 0 -85 0 -85 -85 0 -85 0 0 85 0 85 -85 0 -85 0 0 -85 0 -85 -85 0
-85 0 0 85 0 85 -85 0 -85 0 0 -85 0 -85 -85 0 -85 0 0 85 0 85 -85 0 -85 0 0
-85 0 -85 -85 0 -85 0 0 85 0 85 85 0 85 0 0 85 0 85 85 0 85 0 0 85 0 85 85
0 85 0 0 85 0 85 85 0 85 0 0 85 0 85 85 0 85 0 0 85 0 85 85 0 85 0 0 85 0
85 85 0 85 0 0 85 0 85 85 0 85 0 0 85 0 85 85 0 85 0 0 85 0 85 85 0 85 0 0
85 0 85 85 0 85 0 0 85 0 85 85 0 85 0 0 85 0 85 85 0 85 0 0 85 0 85 85 0 85
0 0 85 0 85 85 0 85 0 0 85 0 85 85 0 85 0 0 85 0 85 85 0 85 0 0 85 0 85 85
0 85 0 0 85 0 85 85 0 85 0 0 -85z"/>
<path d="M7140 4325 l0 -85 -85 0 -85 0 0 -85 0 -85 -85 0 -85 0 0 -85 0 -85
-85 0 -85 0 0 -85 0 -85 -85 0 -85 0 0 -85 0 -85 -85 0 -85 0 0 -85 0 -85 -85
0 -85 0 0 -85 0 -85 -85 0 -85 0 0 -85 0 -85 -85 0 -85 0 0 -85 0 -85 -85 0
-85 0 0 -85 0 -85 -85 0 -85 0 0 -85 0 -85 -85 0 -85 0 0 -85 0 -85 -85 0 -85
0 0 -85 0 -85 -85 0 -85 0 0 -85 0 -85 -85 0 -85 0 0 -85 0 -85 -85 0 -85 0 0
-85 0 -85 85 0 85 0 0 85 0 85 85 0 85 0 0 -85 0 -85 85 0 85 0 0 85 0 85 85
0 85 0 0 -85 0 -85 85 0 85 0 0 85 0 85 85 0 85 0 0 -85 0 -85 85 0 85 0 0 85
0 85 85 0 85 0 0 85 0 85 85 0 85 0 0 -85 0 -85 85 0 85 0 0 85 0 85 85 0 85
0 0 85 0 85 85 0 85 0 0 -85 0 -85 85 0 85 0 0 85 0 85 85 0 85 0 0 -85 0 -85
85 0 85 0 0 -85 0 -85 85 0 85 0 0 85 0 85 -85 0 -85 0 0 85 0 85 85 0 85 0 0
85 0 85 -85 0 -85 0 0 85 0 85 85 0 85 0 0 85 0 85 -85 0 -85 0 0 85 0 85 85
0 85 0 0 85 0 85 -85 0 -85 0 0 85 0 85 85 0 85 0 0 85 0 85 -85 0 -85 0 0 85
0 85 85 0 85 0 0 85 0 85 -85 0 -85 0 0 85 0 85 85 0 85 0 0 85 0 85 -85 0
-85 0 0 85 0 85 85 0 85 0 0 85 0 85 -85 0 -85 0 0 -85z m0 -340 l0 -85 -85 0
-85 0 0 -85 0 -85 85 0 85 0 0 -85 0 -85 -85 0 -85 0 0 -85 0 -85 85 0 85 0 0
-85 0 -85 -85 0 -85 0 0 -85 0 -85 85 0 85 0 0 -85 0 -85 -85 0 -85 0 0 -85 0
-85 85 0 85 0 0 -85 0 -85 -85 0 -85 0 0 -85 0 -85 85 0 85 0 0 -85 0 -85 -85
0 -85 0 0 85 0 85 -85 0 -85 0 0 -85 0 -85 -85 0 -85 0 0 85 0 85 -85 0 -85 0
0 -85 0 -85 -85 0 -85 0 0 -85 0 -85 -85 0 -85 0 0 85 0 85 -85 0 -85 0 0 -85
0 -85 -85 0 -85 0 0 -85 0 -85 -85 0 -85 0 0 85 0 85 -85 0 -85 0 0 -85 0 -85
-85 0 -85 0 0 85 0 85 -85 0 -85 0 0 -85 0 -85 -85 0 -85 0 0 85 0 85 85 0 85
0 0 85 0 85 85 0 85 0 0 85 0 85 85 0 85 0 0 85 0 85 85 0 85 0 0 85 0 85 85
0 85 0 0 85 0 85 85 0 85 0 0 85 0 85 85 0 85 0 0 85 0 85 85 0 85 0 0 85 0
85 85 0 85 0 0 85 0 85 85 0 85 0 0 85 0 85 85 0 85 0 0 85 0 85 85 0 85 0 0
85 0 85 85 0 85 0 0 -85z"/>
<path d="M6800 3645 l0 -85 -85 0 -85 0 0 -85 0 -85 -85 0 -85 0 0 -85 0 -85
-85 0 -85 0 0 -85 0 -85 -85 0 -85 0 0 -85 0 -85 -85 0 -85 0 0 -85 0 -85 -85
0 -85 0 0 -85 0 -85 -85 0 -85 0 0 -85 0 -85 -85 0 -85 0 0 -85 0 -85 -85 0
-85 0 0 -85 0 -85 85 0 85 0 0 85 0 85 85 0 85 0 0 -85 0 -85 85 0 85 0 0 85
0 85 85 0 85 0 0 85 0 85 85 0 85 0 0 -85 0 -85 85 0 85 0 0 85 0 85 85 0 85
0 0 85 0 85 85 0 85 0 0 -85 0 -85 85 0 85 0 0 85 0 85 85 0 85 0 0 85 0 85
-85 0 -85 0 0 85 0 85 85 0 85 0 0 85 0 85 -85 0 -85 0 0 85 0 85 85 0 85 0 0
85 0 85 -85 0 -85 0 0 85 0 85 85 0 85 0 0 85 0 85 -85 0 -85 0 0 -85z m0
-340 l0 -85 -85 0 -85 0 0 -85 0 -85 85 0 85 0 0 -85 0 -85 -85 0 -85 0 0 -85
0 -85 85 0 85 0 0 -85 0 -85 -85 0 -85 0 0 85 0 85 -85 0 -85 0 0 -85 0 -85
-85 0 -85 0 0 -85 0 -85 -85 0 -85 0 0 85 0 85 -85 0 -85 0 0 -85 0 -85 -85 0
-85 0 0 -85 0 -85 -85 0 -85 0 0 85 0 85 85 0 85 0 0 85 0 85 85 0 85 0 0 85
0 85 85 0 85 0 0 85 0 85 85 0 85 0 0 85 0 85 85 0 85 0 0 85 0 85 85 0 85 0
0 85 0 85 85 0 85 0 0 -85z"/>
<path d="M6460 2965 l0 -85 -85 0 -85 0 0 -85 0 -85 -85 0 -85 0 0 -85 0 -85
85 0 85 0 0 85 0 85 85 0 85 0 0 85 0 85 85 0 85 0 0 85 0 85 -85 0 -85 0 0
-85z"/>
<path d="M2210 755 l0 -85 85 0 85 0 0 85 0 85 -85 0 -85 0 0 -85z"/>
<path d="M6630 415 l0 -85 85 0 85 0 0 85 0 85 -85 0 -85 0 0 -85z"/>
<path d="M7990 415 l0 -85 85 0 85 0 0 85 0 85 -85 0 -85 0 0 -85z"/>
<path d="M1190 1775 l0 -85 85 0 85 0 0 -85 0 -85 -85 0 -85 0 0 -85 0 -85
-85 0 -85 0 0 -85 0 -85 -85 0 -85 0 0 -85 0 -85 85 0 85 0 0 -85 0 -85 85 0
85 0 0 85 0 85 85 0 85 0 0 85 0 85 85 0 85 0 0 85 0 85 85 0 85 0 0 -85 0
-85 85 0 85 0 0 85 0 85 -85 0 -85 0 0 85 0 85 -85 0 -85 0 0 85 0 85 -85 0
-85 0 0 85 0 85 -85 0 -85 0 0 -85z m340 -340 l0 -85 -85 0 -85 0 0 -85 0 -85
-85 0 -85 0 0 -85 0 -85 -85 0 -85 0 0 85 0 85 85 0 85 0 0 85 0 85 85 0 85 0
0 85 0 85 85 0 85 0 0 -85z"/>
</g>
</svg>
